solid ASCII
  facet normal 0.000000e+00 -0.000000e+00 -1.000000e+00
    outer loop
      vertex   1.018699e+02 2.243047e+01 1.000000e+01
      vertex   1.050496e+02 2.664246e+01 1.000000e+01
      vertex   1.017989e+02 2.100843e+01 1.000000e+01
    endloop
  endfacet
  facet normal 0.000000e+00 0.000000e+00 -1.000000e+00
    outer loop
      vertex   1.017989e+02 2.100843e+01 1.000000e+01
      vertex   1.050496e+02 2.664246e+01 1.000000e+01
      vertex   1.059375e+02 2.672547e+01 1.000000e+01
    endloop
  endfacet
  facet normal 0.000000e+00 0.000000e+00 -1.000000e+00
    outer loop
      vertex   1.017989e+02 2.100843e+01 1.000000e+01
      vertex   1.059375e+02 2.672547e+01 1.000000e+01
      vertex   1.059952e+02 1.532990e+01 1.000000e+01
    endloop
  endfacet
  facet normal 0.000000e+00 0.000000e+00 -1.000000e+00
    outer loop
      vertex   1.059952e+02 1.532990e+01 1.000000e+01
      vertex   1.059375e+02 2.672547e+01 1.000000e+01
      vertex   1.101723e+02 2.127792e+01 1.000000e+01
    endloop
  endfacet
  facet normal 0.000000e+00 0.000000e+00 -1.000000e+00
    outer loop
      vertex   1.059952e+02 1.532990e+01 1.000000e+01
      vertex   1.101723e+02 2.127792e+01 1.000000e+01
      vertex   1.069312e+02 1.541110e+01 1.000000e+01
    endloop
  endfacet
  facet normal 0.000000e+00 0.000000e+00 -1.000000e+00
    outer loop
      vertex   1.069312e+02 1.541110e+01 1.000000e+01
      vertex   1.101723e+02 2.127792e+01 1.000000e+01
      vertex   1.101038e+02 1.973136e+01 1.000000e+01
    endloop
  endfacet
  facet normal 0.000000e+00 0.000000e+00 -1.000000e+00
    outer loop
      vertex   1.069312e+02 1.541110e+01 1.000000e+01
      vertex   1.101038e+02 1.973136e+01 1.000000e+01
      vertex   1.077565e+02 1.565473e+01 1.000000e+01
    endloop
  endfacet
  facet normal 0.000000e+00 0.000000e+00 -1.000000e+00
    outer loop
      vertex   1.077565e+02 1.565473e+01 1.000000e+01
      vertex   1.101038e+02 1.973136e+01 1.000000e+01
      vertex   1.084712e+02 1.606077e+01 1.000000e+01
    endloop
  endfacet
  facet normal 0.000000e+00 0.000000e+00 -1.000000e+00
    outer loop
      vertex   1.084712e+02 1.606077e+01 1.000000e+01
      vertex   1.101038e+02 1.973136e+01 1.000000e+01
      vertex   1.098980e+02 1.844106e+01 1.000000e+01
    endloop
  endfacet
  facet normal 0.000000e+00 0.000000e+00 -1.000000e+00
    outer loop
      vertex   1.084712e+02 1.606077e+01 1.000000e+01
      vertex   1.098980e+02 1.844106e+01 1.000000e+01
      vertex   1.090751e+02 1.662922e+01 1.000000e+01
    endloop
  endfacet
  facet normal 0.000000e+00 0.000000e+00 -1.000000e+00
    outer loop
      vertex   1.090751e+02 1.662922e+01 1.000000e+01
      vertex   1.098980e+02 1.844106e+01 1.000000e+01
      vertex   1.093323e+02 1.698609e+01 1.000000e+01
    endloop
  endfacet
  facet normal 0.000000e+00 0.000000e+00 -1.000000e+00
    outer loop
      vertex   1.093323e+02 1.698609e+01 1.000000e+01
      vertex   1.098980e+02 1.844106e+01 1.000000e+01
      vertex   1.095551e+02 1.740701e+01 1.000000e+01
    endloop
  endfacet
  facet normal 0.000000e+00 -0.000000e+00 -1.000000e+00
    outer loop
      vertex   1.020828e+02 2.363596e+01 1.000000e+01
      vertex   1.035482e+02 2.597836e+01 1.000000e+01
      vertex   1.018699e+02 2.243047e+01 1.000000e+01
    endloop
  endfacet
  facet normal 0.000000e+00 0.000000e+00 -1.000000e+00
    outer loop
      vertex   1.018699e+02 2.243047e+01 1.000000e+01
      vertex   1.035482e+02 2.597836e+01 1.000000e+01
      vertex   1.042532e+02 2.639342e+01 1.000000e+01
    endloop
  endfacet
  facet normal 0.000000e+00 0.000000e+00 -1.000000e+00
    outer loop
      vertex   1.018699e+02 2.243047e+01 1.000000e+01
      vertex   1.042532e+02 2.639342e+01 1.000000e+01
      vertex   1.050496e+02 2.664246e+01 1.000000e+01
    endloop
  endfacet
  facet normal 0.000000e+00 -0.000000e+00 -1.000000e+00
    outer loop
      vertex   1.024377e+02 2.462489e+01 1.000000e+01
      vertex   1.029346e+02 2.539727e+01 1.000000e+01
      vertex   1.020828e+02 2.363596e+01 1.000000e+01
    endloop
  endfacet
  facet normal 0.000000e+00 0.000000e+00 -1.000000e+00
    outer loop
      vertex   1.020828e+02 2.363596e+01 1.000000e+01
      vertex   1.029346e+02 2.539727e+01 1.000000e+01
      vertex   1.035482e+02 2.597836e+01 1.000000e+01
    endloop
  endfacet
  facet normal 0.000000e+00 0.000000e+00 -1.000000e+00
    outer loop
      vertex   1.059375e+02 2.672547e+01 1.000000e+01
      vertex   1.068675e+02 2.664366e+01 1.000000e+01
      vertex   1.101723e+02 2.127792e+01 1.000000e+01
    endloop
  endfacet
  facet normal 0.000000e+00 0.000000e+00 -1.000000e+00
    outer loop
      vertex   1.101723e+02 2.127792e+01 1.000000e+01
      vertex   1.068675e+02 2.664366e+01 1.000000e+01
      vertex   1.076940e+02 2.639823e+01 1.000000e+01
    endloop
  endfacet
  facet normal 0.000000e+00 0.000000e+00 -1.000000e+00
    outer loop
      vertex   1.101723e+02 2.127792e+01 1.000000e+01
      vertex   1.076940e+02 2.639823e+01 1.000000e+01
      vertex   1.101013e+02 2.259770e+01 1.000000e+01
    endloop
  endfacet
  facet normal 0.000000e+00 0.000000e+00 -1.000000e+00
    outer loop
      vertex   1.101013e+02 2.259770e+01 1.000000e+01
      vertex   1.076940e+02 2.639823e+01 1.000000e+01
      vertex   1.084170e+02 2.598918e+01 1.000000e+01
    endloop
  endfacet
  facet normal 0.000000e+00 0.000000e+00 -1.000000e+00
    outer loop
      vertex   1.101013e+02 2.259770e+01 1.000000e+01
      vertex   1.084170e+02 2.598918e+01 1.000000e+01
      vertex   1.098884e+02 2.372739e+01 1.000000e+01
    endloop
  endfacet
  facet normal 0.000000e+00 0.000000e+00 -1.000000e+00
    outer loop
      vertex   1.098884e+02 2.372739e+01 1.000000e+01
      vertex   1.084170e+02 2.598918e+01 1.000000e+01
      vertex   1.090366e+02 2.541652e+01 1.000000e+01
    endloop
  endfacet
  facet normal 0.000000e+00 0.000000e+00 -1.000000e+00
    outer loop
      vertex   1.098884e+02 2.372739e+01 1.000000e+01
      vertex   1.090366e+02 2.541652e+01 1.000000e+01
      vertex   1.095335e+02 2.466700e+01 1.000000e+01
    endloop
  endfacet
  facet normal 0.000000e+00 0.000000e+00 -1.000000e+00
    outer loop
      vertex   1.059952e+02 1.532990e+01 1.000000e+01
      vertex   1.050743e+02 1.541291e+01 1.000000e+01
      vertex   1.017989e+02 2.100843e+01 1.000000e+01
    endloop
  endfacet
  facet normal 0.000000e+00 0.000000e+00 -1.000000e+00
    outer loop
      vertex   1.017989e+02 2.100843e+01 1.000000e+01
      vertex   1.050743e+02 1.541291e+01 1.000000e+01
      vertex   1.018693e+02 1.960324e+01 1.000000e+01
    endloop
  endfacet
  facet normal 0.000000e+00 0.000000e+00 -1.000000e+00
    outer loop
      vertex   1.018693e+02 1.960324e+01 1.000000e+01
      vertex   1.050743e+02 1.541291e+01 1.000000e+01
      vertex   1.042556e+02 1.566195e+01 1.000000e+01
    endloop
  endfacet
  facet normal 0.000000e+00 0.000000e+00 -1.000000e+00
    outer loop
      vertex   1.018693e+02 1.960324e+01 1.000000e+01
      vertex   1.042556e+02 1.566195e+01 1.000000e+01
      vertex   1.035391e+02 1.607701e+01 1.000000e+01
    endloop
  endfacet
  facet normal 0.000000e+00 0.000000e+00 -1.000000e+00
    outer loop
      vertex   1.018693e+02 1.960324e+01 1.000000e+01
      vertex   1.035391e+02 1.607701e+01 1.000000e+01
      vertex   1.020804e+02 1.840978e+01 1.000000e+01
    endloop
  endfacet
  facet normal 0.000000e+00 0.000000e+00 -1.000000e+00
    outer loop
      vertex   1.020804e+02 1.840978e+01 1.000000e+01
      vertex   1.035391e+02 1.607701e+01 1.000000e+01
      vertex   1.029250e+02 1.665810e+01 1.000000e+01
    endloop
  endfacet
  facet normal 0.000000e+00 0.000000e+00 -1.000000e+00
    outer loop
      vertex   1.020804e+02 1.840978e+01 1.000000e+01
      vertex   1.029250e+02 1.665810e+01 1.000000e+01
      vertex   1.024323e+02 1.742807e+01 1.000000e+01
    endloop
  endfacet
  facet normal 0.000000e+00 0.000000e+00 -1.000000e+00
    outer loop
      vertex   1.163097e+02 1.993149e+01 1.000000e+01
      vertex   1.163513e+02 2.120093e+01 1.000000e+01
      vertex   1.383340e+02 1.914125e+01 1.000000e+01
    endloop
  endfacet
  facet normal 0.000000e+00 0.000000e+00 -1.000000e+00
    outer loop
      vertex   1.383340e+02 1.914125e+01 1.000000e+01
      vertex   1.163513e+02 2.120093e+01 1.000000e+01
      vertex   1.163091e+02 2.237528e+01 1.000000e+01
    endloop
  endfacet
  facet normal 0.000000e+00 0.000000e+00 -1.000000e+00
    outer loop
      vertex   1.383340e+02 1.914125e+01 1.000000e+01
      vertex   1.163091e+02 2.237528e+01 1.000000e+01
      vertex   1.161823e+02 2.348257e+01 1.000000e+01
    endloop
  endfacet
  facet normal 0.000000e+00 0.000000e+00 -1.000000e+00
    outer loop
      vertex   1.161823e+02 2.348257e+01 1.000000e+01
      vertex   1.159710e+02 2.452278e+01 1.000000e+01
      vertex   1.383340e+02 1.914125e+01 1.000000e+01
    endloop
  endfacet
  facet normal 0.000000e+00 0.000000e+00 -1.000000e+00
    outer loop
      vertex   1.383340e+02 1.914125e+01 1.000000e+01
      vertex   1.159710e+02 2.452278e+01 1.000000e+01
      vertex   1.383340e+02 3.105656e+01 1.000000e+01
    endloop
  endfacet
  facet normal 0.000000e+00 0.000000e+00 -1.000000e+00
    outer loop
      vertex   1.383340e+02 3.105656e+01 1.000000e+01
      vertex   1.159710e+02 2.452278e+01 1.000000e+01
      vertex   1.156752e+02 2.549592e+01 1.000000e+01
    endloop
  endfacet
  facet normal 0.000000e+00 0.000000e+00 -1.000000e+00
    outer loop
      vertex   1.383340e+02 3.105656e+01 1.000000e+01
      vertex   1.156752e+02 2.549592e+01 1.000000e+01
      vertex   1.152949e+02 2.640199e+01 1.000000e+01
    endloop
  endfacet
  facet normal 0.000000e+00 0.000000e+00 -1.000000e+00
    outer loop
      vertex   1.152949e+02 2.640199e+01 1.000000e+01
      vertex   1.148301e+02 2.724099e+01 1.000000e+01
      vertex   1.383340e+02 3.105656e+01 1.000000e+01
    endloop
  endfacet
  facet normal 0.000000e+00 0.000000e+00 -1.000000e+00
    outer loop
      vertex   1.383340e+02 3.105656e+01 1.000000e+01
      vertex   1.148301e+02 2.724099e+01 1.000000e+01
      vertex   1.142807e+02 2.801292e+01 1.000000e+01
    endloop
  endfacet
  facet normal 0.000000e+00 0.000000e+00 -1.000000e+00
    outer loop
      vertex   1.383340e+02 3.105656e+01 1.000000e+01
      vertex   1.142807e+02 2.801292e+01 1.000000e+01
      vertex   1.136468e+02 2.871777e+01 1.000000e+01
    endloop
  endfacet
  facet normal 0.000000e+00 0.000000e+00 -1.000000e+00
    outer loop
      vertex   1.136468e+02 2.871777e+01 1.000000e+01
      vertex   1.129351e+02 2.934713e+01 1.000000e+01
      vertex   1.383340e+02 3.105656e+01 1.000000e+01
    endloop
  endfacet
  facet normal 0.000000e+00 0.000000e+00 -1.000000e+00
    outer loop
      vertex   1.383340e+02 3.105656e+01 1.000000e+01
      vertex   1.129351e+02 2.934713e+01 1.000000e+01
      vertex   1.121520e+02 2.989258e+01 1.000000e+01
    endloop
  endfacet
  facet normal 0.000000e+00 0.000000e+00 -1.000000e+00
    outer loop
      vertex   1.383340e+02 3.105656e+01 1.000000e+01
      vertex   1.121520e+02 2.989258e+01 1.000000e+01
      vertex   1.112977e+02 3.035411e+01 1.000000e+01
    endloop
  endfacet
  facet normal 0.000000e+00 0.000000e+00 -1.000000e+00
    outer loop
      vertex   1.112977e+02 3.035411e+01 1.000000e+01
      vertex   1.103720e+02 3.073173e+01 1.000000e+01
      vertex   1.383340e+02 3.105656e+01 1.000000e+01
    endloop
  endfacet
  facet normal 0.000000e+00 0.000000e+00 -1.000000e+00
    outer loop
      vertex   1.383340e+02 3.105656e+01 1.000000e+01
      vertex   1.103720e+02 3.073173e+01 1.000000e+01
      vertex   1.093751e+02 3.102543e+01 1.000000e+01
    endloop
  endfacet
  facet normal -0.000000e+00 0.000000e+00 -1.000000e+00
    outer loop
      vertex   1.383340e+02 3.105656e+01 1.000000e+01
      vertex   1.093751e+02 3.102543e+01 1.000000e+01
      vertex   1.192580e+02 5.512442e+01 1.000000e+01
    endloop
  endfacet
  facet normal 0.000000e+00 0.000000e+00 -1.000000e+00
    outer loop
      vertex   1.192580e+02 5.512442e+01 1.000000e+01
      vertex   1.093751e+02 3.102543e+01 1.000000e+01
      vertex   1.083070e+02 3.123521e+01 1.000000e+01
    endloop
  endfacet
  facet normal -0.000000e+00 0.000000e+00 -1.000000e+00
    outer loop
      vertex   1.192580e+02 5.512442e+01 1.000000e+01
      vertex   1.083070e+02 3.123521e+01 1.000000e+01
      vertex   1.127902e+02 5.512442e+01 1.000000e+01
    endloop
  endfacet
  facet normal 0.000000e+00 0.000000e+00 -1.000000e+00
    outer loop
      vertex   1.127902e+02 5.512442e+01 1.000000e+01
      vertex   1.083070e+02 3.123521e+01 1.000000e+01
      vertex   1.071675e+02 3.136109e+01 1.000000e+01
    endloop
  endfacet
  facet normal 0.000000e+00 0.000000e+00 -1.000000e+00
    outer loop
      vertex   1.127902e+02 5.512442e+01 1.000000e+01
      vertex   1.071675e+02 3.136109e+01 1.000000e+01
      vertex   1.059567e+02 3.140304e+01 1.000000e+01
    endloop
  endfacet
  facet normal -0.000000e+00 0.000000e+00 -1.000000e+00
    outer loop
      vertex   1.127902e+02 5.512442e+01 1.000000e+01
      vertex   1.059567e+02 3.140304e+01 1.000000e+01
      vertex   1.037816e+02 5.512442e+01 1.000000e+01
    endloop
  endfacet
  facet normal 0.000000e+00 0.000000e+00 -1.000000e+00
    outer loop
      vertex   1.037816e+02 5.512442e+01 1.000000e+01
      vertex   1.059567e+02 3.140304e+01 1.000000e+01
      vertex   1.047726e+02 3.136033e+01 1.000000e+01
    endloop
  endfacet
  facet normal -0.000000e+00 -0.000000e+00 -1.000000e+00
    outer loop
      vertex   1.037816e+02 5.512442e+01 1.000000e+01
      vertex   1.047726e+02 3.136033e+01 1.000000e+01
      vertex   9.746780e+01 5.512442e+01 1.000000e+01
    endloop
  endfacet
  facet normal 0.000000e+00 0.000000e+00 -1.000000e+00
    outer loop
      vertex   9.746780e+01 5.512442e+01 1.000000e+01
      vertex   1.047726e+02 3.136033e+01 1.000000e+01
      vertex   1.036552e+02 3.123221e+01 1.000000e+01
    endloop
  endfacet
  facet normal 0.000000e+00 0.000000e+00 -1.000000e+00
    outer loop
      vertex   9.746780e+01 5.512442e+01 1.000000e+01
      vertex   1.036552e+02 3.123221e+01 1.000000e+01
      vertex   1.026047e+02 3.101866e+01 1.000000e+01
    endloop
  endfacet
  facet normal 0.000000e+00 -0.000000e+00 -1.000000e+00
    outer loop
      vertex   9.746780e+01 5.512442e+01 1.000000e+01
      vertex   1.026047e+02 3.101866e+01 1.000000e+01
      vertex   7.575462e+01 3.105656e+01 1.000000e+01
    endloop
  endfacet
  facet normal 0.000000e+00 0.000000e+00 -1.000000e+00
    outer loop
      vertex   7.575462e+01 3.105656e+01 1.000000e+01
      vertex   1.026047e+02 3.101866e+01 1.000000e+01
      vertex   1.016208e+02 3.071969e+01 1.000000e+01
    endloop
  endfacet
  facet normal 0.000000e+00 0.000000e+00 -1.000000e+00
    outer loop
      vertex   7.575462e+01 3.105656e+01 1.000000e+01
      vertex   1.016208e+02 3.071969e+01 1.000000e+01
      vertex   1.007038e+02 3.033531e+01 1.000000e+01
    endloop
  endfacet
  facet normal -0.000000e+00 0.000000e+00 -1.000000e+00
    outer loop
      vertex   1.007038e+02 3.033531e+01 1.000000e+01
      vertex   9.985351e+01 2.986551e+01 1.000000e+01
      vertex   7.575462e+01 3.105656e+01 1.000000e+01
    endloop
  endfacet
  facet normal 0.000000e+00 0.000000e+00 -1.000000e+00
    outer loop
      vertex   7.575462e+01 3.105656e+01 1.000000e+01
      vertex   9.985351e+01 2.986551e+01 1.000000e+01
      vertex   9.907001e+01 2.931029e+01 1.000000e+01
    endloop
  endfacet
  facet normal 0.000000e+00 0.000000e+00 -1.000000e+00
    outer loop
      vertex   7.575462e+01 3.105656e+01 1.000000e+01
      vertex   9.907001e+01 2.931029e+01 1.000000e+01
      vertex   9.835327e+01 2.866965e+01 1.000000e+01
    endloop
  endfacet
  facet normal -0.000000e+00 0.000000e+00 -1.000000e+00
    outer loop
      vertex   9.835327e+01 2.866965e+01 1.000000e+01
      vertex   9.771263e+01 2.795261e+01 1.000000e+01
      vertex   7.575462e+01 3.105656e+01 1.000000e+01
    endloop
  endfacet
  facet normal 0.000000e+00 0.000000e+00 -1.000000e+00
    outer loop
      vertex   7.575462e+01 3.105656e+01 1.000000e+01
      vertex   9.771263e+01 2.795261e+01 1.000000e+01
      vertex   9.715741e+01 2.716820e+01 1.000000e+01
    endloop
  endfacet
  facet normal 0.000000e+00 0.000000e+00 -1.000000e+00
    outer loop
      vertex   7.575462e+01 3.105656e+01 1.000000e+01
      vertex   9.715741e+01 2.716820e+01 1.000000e+01
      vertex   9.668761e+01 2.631642e+01 1.000000e+01
    endloop
  endfacet
  facet normal -0.000000e+00 0.000000e+00 -1.000000e+00
    outer loop
      vertex   9.668761e+01 2.631642e+01 1.000000e+01
      vertex   9.630322e+01 2.539727e+01 1.000000e+01
      vertex   7.575462e+01 3.105656e+01 1.000000e+01
    endloop
  endfacet
  facet normal 0.000000e+00 0.000000e+00 -1.000000e+00
    outer loop
      vertex   7.575462e+01 3.105656e+01 1.000000e+01
      vertex   9.630322e+01 2.539727e+01 1.000000e+01
      vertex   9.600426e+01 2.441074e+01 1.000000e+01
    endloop
  endfacet
  facet normal 0.000000e+00 0.000000e+00 -1.000000e+00
    outer loop
      vertex   7.575462e+01 3.105656e+01 1.000000e+01
      vertex   9.600426e+01 2.441074e+01 1.000000e+01
      vertex   9.579071e+01 2.335685e+01 1.000000e+01
    endloop
  endfacet
  facet normal 0.000000e+00 -0.000000e+00 -1.000000e+00
    outer loop
      vertex   7.575462e+01 3.105656e+01 1.000000e+01
      vertex   9.579071e+01 2.335685e+01 1.000000e+01
      vertex   6.797791e+01 1.942999e+01 1.000000e+01
    endloop
  endfacet
  facet normal 0.000000e+00 0.000000e+00 -1.000000e+00
    outer loop
      vertex   6.797791e+01 1.942999e+01 1.000000e+01
      vertex   9.579071e+01 2.335685e+01 1.000000e+01
      vertex   9.566258e+01 2.223558e+01 1.000000e+01
    endloop
  endfacet
  facet normal 0.000000e+00 0.000000e+00 -1.000000e+00
    outer loop
      vertex   6.797791e+01 1.942999e+01 1.000000e+01
      vertex   9.566258e+01 2.223558e+01 1.000000e+01
      vertex   9.561987e+01 2.104693e+01 1.000000e+01
    endloop
  endfacet
  facet normal 0.000000e+00 -0.000000e+00 -1.000000e+00
    outer loop
      vertex   9.561987e+01 2.104693e+01 1.000000e+01
      vertex   9.566826e+01 1.977411e+01 1.000000e+01
      vertex   6.797791e+01 1.942999e+01 1.000000e+01
    endloop
  endfacet
  facet normal 0.000000e+00 0.000000e+00 -1.000000e+00
    outer loop
      vertex   6.797791e+01 1.942999e+01 1.000000e+01
      vertex   9.566826e+01 1.977411e+01 1.000000e+01
      vertex   9.581342e+01 1.858318e+01 1.000000e+01
    endloop
  endfacet
  facet normal 0.000000e+00 0.000000e+00 -1.000000e+00
    outer loop
      vertex   6.797791e+01 1.942999e+01 1.000000e+01
      vertex   9.581342e+01 1.858318e+01 1.000000e+01
      vertex   9.605535e+01 1.747412e+01 1.000000e+01
    endloop
  endfacet
  facet normal -0.000000e+00 -0.000000e+00 -1.000000e+00
    outer loop
      vertex   9.605535e+01 1.747412e+01 1.000000e+01
      vertex   9.639406e+01 1.644696e+01 1.000000e+01
      vertex   6.797791e+01 1.942999e+01 1.000000e+01
    endloop
  endfacet
  facet normal 0.000000e+00 0.000000e+00 -1.000000e+00
    outer loop
      vertex   6.797791e+01 1.942999e+01 1.000000e+01
      vertex   9.639406e+01 1.644696e+01 1.000000e+01
      vertex   6.797791e+01 1.105656e+01 1.000000e+01
    endloop
  endfacet
  facet normal 0.000000e+00 0.000000e+00 -1.000000e+00
    outer loop
      vertex   6.797791e+01 1.105656e+01 1.000000e+01
      vertex   9.639406e+01 1.644696e+01 1.000000e+01
      vertex   9.682953e+01 1.550167e+01 1.000000e+01
    endloop
  endfacet
  facet normal 0.000000e+00 0.000000e+00 -1.000000e+00
    outer loop
      vertex   6.797791e+01 1.105656e+01 1.000000e+01
      vertex   9.682953e+01 1.550167e+01 1.000000e+01
      vertex   9.735351e+01 1.463978e+01 1.000000e+01
    endloop
  endfacet
  facet normal 0.000000e+00 -0.000000e+00 -1.000000e+00
    outer loop
      vertex   9.735351e+01 1.463978e+01 1.000000e+01
      vertex   9.793911e+01 1.386616e+01 1.000000e+01
      vertex   6.797791e+01 1.105656e+01 1.000000e+01
    endloop
  endfacet
  facet normal 0.000000e+00 0.000000e+00 -1.000000e+00
    outer loop
      vertex   6.797791e+01 1.105656e+01 1.000000e+01
      vertex   9.793911e+01 1.386616e+01 1.000000e+01
      vertex   9.858426e+01 1.318120e+01 1.000000e+01
    endloop
  endfacet
  facet normal 0.000000e+00 0.000000e+00 -1.000000e+00
    outer loop
      vertex   6.797791e+01 1.105656e+01 1.000000e+01
      vertex   9.858426e+01 1.318120e+01 1.000000e+01
      vertex   9.928897e+01 1.258488e+01 1.000000e+01
    endloop
  endfacet
  facet normal 0.000000e+00 -0.000000e+00 -1.000000e+00
    outer loop
      vertex   9.928897e+01 1.258488e+01 1.000000e+01
      vertex   1.000532e+02 1.207722e+01 1.000000e+01
      vertex   6.797791e+01 1.105656e+01 1.000000e+01
    endloop
  endfacet
  facet normal 0.000000e+00 0.000000e+00 -1.000000e+00
    outer loop
      vertex   6.797791e+01 1.105656e+01 1.000000e+01
      vertex   1.000532e+02 1.207722e+01 1.000000e+01
      vertex   1.008782e+02 1.165750e+01 1.000000e+01
    endloop
  endfacet
  facet normal 0.000000e+00 0.000000e+00 -1.000000e+00
    outer loop
      vertex   6.797791e+01 1.105656e+01 1.000000e+01
      vertex   1.008782e+02 1.165750e+01 1.000000e+01
      vertex   1.017790e+02 1.131642e+01 1.000000e+01
    endloop
  endfacet
  facet normal 0.000000e+00 -0.000000e+00 -1.000000e+00
    outer loop
      vertex   1.017790e+02 1.131642e+01 1.000000e+01
      vertex   1.027604e+02 1.105114e+01 1.000000e+01
      vertex   6.797791e+01 1.105656e+01 1.000000e+01
    endloop
  endfacet
  facet normal 0.000000e+00 0.000000e+00 -1.000000e+00
    outer loop
      vertex   6.797791e+01 1.105656e+01 1.000000e+01
      vertex   1.027604e+02 1.105114e+01 1.000000e+01
      vertex   1.038223e+02 1.086166e+01 1.000000e+01
    endloop
  endfacet
  facet normal 0.000000e+00 0.000000e+00 -1.000000e+00
    outer loop
      vertex   6.797791e+01 1.105656e+01 1.000000e+01
      vertex   1.038223e+02 1.086166e+01 1.000000e+01
      vertex   1.049648e+02 1.074797e+01 1.000000e+01
    endloop
  endfacet
  facet normal 0.000000e+00 -0.000000e+00 -1.000000e+00
    outer loop
      vertex   6.797791e+01 1.105656e+01 1.000000e+01
      vertex   1.049648e+02 1.074797e+01 1.000000e+01
      vertex   0.000000e+00 0.000000e+00 1.000000e+01
    endloop
  endfacet
  facet normal 0.000000e+00 0.000000e+00 -1.000000e+00
    outer loop
      vertex   0.000000e+00 0.000000e+00 1.000000e+01
      vertex   1.049648e+02 1.074797e+01 1.000000e+01
      vertex   1.061877e+02 1.071007e+01 1.000000e+01
    endloop
  endfacet
  facet normal 0.000000e+00 0.000000e+00 -1.000000e+00
    outer loop
      vertex   0.000000e+00 0.000000e+00 1.000000e+01
      vertex   1.061877e+02 1.071007e+01 1.000000e+01
      vertex   2.250000e+02 0.000000e+00 1.000000e+01
    endloop
  endfacet
  facet normal 0.000000e+00 0.000000e+00 -1.000000e+00
    outer loop
      vertex   2.250000e+02 0.000000e+00 1.000000e+01
      vertex   1.061877e+02 1.071007e+01 1.000000e+01
      vertex   1.073980e+02 1.075406e+01 1.000000e+01
    endloop
  endfacet
  facet normal 0.000000e+00 0.000000e+00 -1.000000e+00
    outer loop
      vertex   2.250000e+02 0.000000e+00 1.000000e+01
      vertex   1.073980e+02 1.075406e+01 1.000000e+01
      vertex   1.468927e+02 1.076060e+01 1.000000e+01
    endloop
  endfacet
  facet normal -0.000000e+00 0.000000e+00 -1.000000e+00
    outer loop
      vertex   1.468927e+02 1.076060e+01 1.000000e+01
      vertex   1.073980e+02 1.075406e+01 1.000000e+01
      vertex   1.452349e+02 1.091219e+01 1.000000e+01
    endloop
  endfacet
  facet normal 0.000000e+00 0.000000e+00 -1.000000e+00
    outer loop
      vertex   1.452349e+02 1.091219e+01 1.000000e+01
      vertex   1.073980e+02 1.075406e+01 1.000000e+01
      vertex   1.085310e+02 1.088602e+01 1.000000e+01
    endloop
  endfacet
  facet normal -0.000000e+00 0.000000e+00 -1.000000e+00
    outer loop
      vertex   1.452349e+02 1.091219e+01 1.000000e+01
      vertex   1.085310e+02 1.088602e+01 1.000000e+01
      vertex   1.444084e+02 1.103851e+01 1.000000e+01
    endloop
  endfacet
  facet normal -0.000000e+00 0.000000e+00 -1.000000e+00
    outer loop
      vertex   1.444084e+02 1.103851e+01 1.000000e+01
      vertex   1.085310e+02 1.088602e+01 1.000000e+01
      vertex   1.095870e+02 1.110596e+01 1.000000e+01
    endloop
  endfacet
  facet normal 0.000000e+00 0.000000e+00 -1.000000e+00
    outer loop
      vertex   1.444084e+02 1.103851e+01 1.000000e+01
      vertex   1.095870e+02 1.110596e+01 1.000000e+01
      vertex   1.436516e+02 1.121536e+01 1.000000e+01
    endloop
  endfacet
  facet normal -0.000000e+00 0.000000e+00 -1.000000e+00
    outer loop
      vertex   1.436516e+02 1.121536e+01 1.000000e+01
      vertex   1.095870e+02 1.110596e+01 1.000000e+01
      vertex   1.105657e+02 1.141387e+01 1.000000e+01
    endloop
  endfacet
  facet normal 0.000000e+00 0.000000e+00 -1.000000e+00
    outer loop
      vertex   1.436516e+02 1.121536e+01 1.000000e+01
      vertex   1.105657e+02 1.141387e+01 1.000000e+01
      vertex   1.429647e+02 1.144275e+01 1.000000e+01
    endloop
  endfacet
  facet normal -0.000000e+00 0.000000e+00 -1.000000e+00
    outer loop
      vertex   1.429647e+02 1.144275e+01 1.000000e+01
      vertex   1.105657e+02 1.141387e+01 1.000000e+01
      vertex   1.114674e+02 1.180976e+01 1.000000e+01
    endloop
  endfacet
  facet normal 0.000000e+00 0.000000e+00 -1.000000e+00
    outer loop
      vertex   1.429647e+02 1.144275e+01 1.000000e+01
      vertex   1.114674e+02 1.180976e+01 1.000000e+01
      vertex   1.423475e+02 1.172066e+01 1.000000e+01
    endloop
  endfacet
  facet normal 0.000000e+00 0.000000e+00 -1.000000e+00
    outer loop
      vertex   1.423475e+02 1.172066e+01 1.000000e+01
      vertex   1.114674e+02 1.180976e+01 1.000000e+01
      vertex   1.122926e+02 1.228956e+01 1.000000e+01
    endloop
  endfacet
  facet normal 0.000000e+00 0.000000e+00 -1.000000e+00
    outer loop
      vertex   1.423475e+02 1.172066e+01 1.000000e+01
      vertex   1.122926e+02 1.228956e+01 1.000000e+01
      vertex   1.412334e+02 1.245454e+01 1.000000e+01
    endloop
  endfacet
  facet normal -0.000000e+00 0.000000e+00 -1.000000e+00
    outer loop
      vertex   1.412334e+02 1.245454e+01 1.000000e+01
      vertex   1.122926e+02 1.228956e+01 1.000000e+01
      vertex   1.130439e+02 1.284009e+01 1.000000e+01
    endloop
  endfacet
  facet normal 0.000000e+00 0.000000e+00 -1.000000e+00
    outer loop
      vertex   1.412334e+02 1.245454e+01 1.000000e+01
      vertex   1.130439e+02 1.284009e+01 1.000000e+01
      vertex   1.402205e+02 1.344347e+01 1.000000e+01
    endloop
  endfacet
  facet normal -0.000000e+00 0.000000e+00 -1.000000e+00
    outer loop
      vertex   1.402205e+02 1.344347e+01 1.000000e+01
      vertex   1.130439e+02 1.284009e+01 1.000000e+01
      vertex   1.137214e+02 1.346031e+01 1.000000e+01
    endloop
  endfacet
  facet normal 0.000000e+00 0.000000e+00 -1.000000e+00
    outer loop
      vertex   1.402205e+02 1.344347e+01 1.000000e+01
      vertex   1.137214e+02 1.346031e+01 1.000000e+01
      vertex   1.143252e+02 1.415024e+01 1.000000e+01
    endloop
  endfacet
  facet normal 0.000000e+00 0.000000e+00 -1.000000e+00
    outer loop
      vertex   1.402205e+02 1.344347e+01 1.000000e+01
      vertex   1.143252e+02 1.415024e+01 1.000000e+01
      vertex   1.394120e+02 1.457917e+01 1.000000e+01
    endloop
  endfacet
  facet normal -0.000000e+00 0.000000e+00 -1.000000e+00
    outer loop
      vertex   1.394120e+02 1.457917e+01 1.000000e+01
      vertex   1.143252e+02 1.415024e+01 1.000000e+01
      vertex   1.148552e+02 1.490987e+01 1.000000e+01
    endloop
  endfacet
  facet normal 0.000000e+00 0.000000e+00 -1.000000e+00
    outer loop
      vertex   1.394120e+02 1.457917e+01 1.000000e+01
      vertex   1.148552e+02 1.490987e+01 1.000000e+01
      vertex   1.153109e+02 1.574026e+01 1.000000e+01
    endloop
  endfacet
  facet normal 0.000000e+00 0.000000e+00 -1.000000e+00
    outer loop
      vertex   1.394120e+02 1.457917e+01 1.000000e+01
      vertex   1.153109e+02 1.574026e+01 1.000000e+01
      vertex   1.389115e+02 1.575338e+01 1.000000e+01
    endloop
  endfacet
  facet normal -0.000000e+00 0.000000e+00 -1.000000e+00
    outer loop
      vertex   1.389115e+02 1.575338e+01 1.000000e+01
      vertex   1.153109e+02 1.574026e+01 1.000000e+01
      vertex   1.156854e+02 1.665509e+01 1.000000e+01
    endloop
  endfacet
  facet normal 0.000000e+00 0.000000e+00 -1.000000e+00
    outer loop
      vertex   1.389115e+02 1.575338e+01 1.000000e+01
      vertex   1.156854e+02 1.665509e+01 1.000000e+01
      vertex   1.386589e+02 1.667975e+01 1.000000e+01
    endloop
  endfacet
  facet normal -0.000000e+00 0.000000e+00 -1.000000e+00
    outer loop
      vertex   1.386589e+02 1.667975e+01 1.000000e+01
      vertex   1.156854e+02 1.665509e+01 1.000000e+01
      vertex   1.159768e+02 1.765857e+01 1.000000e+01
    endloop
  endfacet
  facet normal 0.000000e+00 0.000000e+00 -1.000000e+00
    outer loop
      vertex   1.386589e+02 1.667975e+01 1.000000e+01
      vertex   1.159768e+02 1.765857e+01 1.000000e+01
      vertex   1.384784e+02 1.755319e+01 1.000000e+01
    endloop
  endfacet
  facet normal 0.000000e+00 0.000000e+00 -1.000000e+00
    outer loop
      vertex   1.384784e+02 1.755319e+01 1.000000e+01
      vertex   1.159768e+02 1.765857e+01 1.000000e+01
      vertex   1.383701e+02 1.837369e+01 1.000000e+01
    endloop
  endfacet
  facet normal -0.000000e+00 0.000000e+00 -1.000000e+00
    outer loop
      vertex   1.383701e+02 1.837369e+01 1.000000e+01
      vertex   1.159768e+02 1.765857e+01 1.000000e+01
      vertex   1.161849e+02 1.875070e+01 1.000000e+01
    endloop
  endfacet
  facet normal 0.000000e+00 0.000000e+00 -1.000000e+00
    outer loop
      vertex   1.383701e+02 1.837369e+01 1.000000e+01
      vertex   1.161849e+02 1.875070e+01 1.000000e+01
      vertex   1.383340e+02 1.914125e+01 1.000000e+01
    endloop
  endfacet
  facet normal -0.000000e+00 0.000000e+00 -1.000000e+00
    outer loop
      vertex   1.383340e+02 1.914125e+01 1.000000e+01
      vertex   1.161849e+02 1.875070e+01 1.000000e+01
      vertex   1.163097e+02 1.993149e+01 1.000000e+01
    endloop
  endfacet
  facet normal 0.000000e+00 0.000000e+00 -1.000000e+00
    outer loop
      vertex   1.532330e+02 6.405609e+01 1.000000e+01
      vertex   1.456872e+02 7.512442e+01 1.000000e+01
      vertex   1.532330e+02 7.512442e+01 1.000000e+01
    endloop
  endfacet
  facet normal 0.000000e+00 0.000000e+00 -1.000000e+00
    outer loop
      vertex   1.532330e+02 7.512442e+01 1.000000e+01
      vertex   1.456872e+02 7.512442e+01 1.000000e+01
      vertex   2.250000e+02 1.000000e+02 1.000000e+01
    endloop
  endfacet
  facet normal 0.000000e+00 0.000000e+00 -1.000000e+00
    outer loop
      vertex   1.532330e+02 7.512442e+01 1.000000e+01
      vertex   2.250000e+02 1.000000e+02 1.000000e+01
      vertex   1.590655e+02 7.512442e+01 1.000000e+01
    endloop
  endfacet
  facet normal 0.000000e+00 0.000000e+00 -1.000000e+00
    outer loop
      vertex   1.590655e+02 7.512442e+01 1.000000e+01
      vertex   2.250000e+02 1.000000e+02 1.000000e+01
      vertex   1.818374e+02 7.512442e+01 1.000000e+01
    endloop
  endfacet
  facet normal 0.000000e+00 0.000000e+00 -1.000000e+00
    outer loop
      vertex   1.590655e+02 7.512442e+01 1.000000e+01
      vertex   1.818374e+02 7.512442e+01 1.000000e+01
      vertex   1.590655e+02 5.512442e+01 1.000000e+01
    endloop
  endfacet
  facet normal 0.000000e+00 0.000000e+00 -1.000000e+00
    outer loop
      vertex   1.590655e+02 5.512442e+01 1.000000e+01
      vertex   1.818374e+02 7.512442e+01 1.000000e+01
      vertex   1.818374e+02 5.512442e+01 1.000000e+01
    endloop
  endfacet
  facet normal 0.000000e+00 -0.000000e+00 -1.000000e+00
    outer loop
      vertex   1.590655e+02 5.512442e+01 1.000000e+01
      vertex   1.818374e+02 5.512442e+01 1.000000e+01
      vertex   1.575256e+02 3.105656e+01 1.000000e+01
    endloop
  endfacet
  facet normal 0.000000e+00 0.000000e+00 -1.000000e+00
    outer loop
      vertex   1.575256e+02 3.105656e+01 1.000000e+01
      vertex   1.818374e+02 5.512442e+01 1.000000e+01
      vertex   1.880164e+02 5.512442e+01 1.000000e+01
    endloop
  endfacet
  facet normal 0.000000e+00 0.000000e+00 -1.000000e+00
    outer loop
      vertex   1.575256e+02 3.105656e+01 1.000000e+01
      vertex   1.880164e+02 5.512442e+01 1.000000e+01
      vertex   1.954274e+02 5.512442e+01 1.000000e+01
    endloop
  endfacet
  facet normal 0.000000e+00 0.000000e+00 -1.000000e+00
    outer loop
      vertex   1.954274e+02 5.512442e+01 1.000000e+01
      vertex   1.880164e+02 5.512442e+01 1.000000e+01
      vertex   1.880164e+02 5.997524e+01 1.000000e+01
    endloop
  endfacet
  facet normal 0.000000e+00 0.000000e+00 -1.000000e+00
    outer loop
      vertex   1.954274e+02 5.512442e+01 1.000000e+01
      vertex   1.880164e+02 5.997524e+01 1.000000e+01
      vertex   1.912118e+02 6.334386e+01 1.000000e+01
    endloop
  endfacet
  facet normal 0.000000e+00 0.000000e+00 -1.000000e+00
    outer loop
      vertex   1.456872e+02 7.512442e+01 1.000000e+01
      vertex   1.399125e+02 7.512442e+01 1.000000e+01
      vertex   2.250000e+02 1.000000e+02 1.000000e+01
    endloop
  endfacet
  facet normal 0.000000e+00 0.000000e+00 -1.000000e+00
    outer loop
      vertex   2.250000e+02 1.000000e+02 1.000000e+01
      vertex   1.399125e+02 7.512442e+01 1.000000e+01
      vertex   1.117508e+02 7.512442e+01 1.000000e+01
    endloop
  endfacet
  facet normal -0.000000e+00 0.000000e+00 -1.000000e+00
    outer loop
      vertex   2.250000e+02 1.000000e+02 1.000000e+01
      vertex   1.117508e+02 7.512442e+01 1.000000e+01
      vertex   0.000000e+00 1.000000e+02 1.000000e+01
    endloop
  endfacet
  facet normal 0.000000e+00 0.000000e+00 -1.000000e+00
    outer loop
      vertex   0.000000e+00 1.000000e+02 1.000000e+01
      vertex   1.117508e+02 7.512442e+01 1.000000e+01
      vertex   1.049943e+02 7.512442e+01 1.000000e+01
    endloop
  endfacet
  facet normal 0.000000e+00 0.000000e+00 -1.000000e+00
    outer loop
      vertex   0.000000e+00 1.000000e+02 1.000000e+01
      vertex   1.049943e+02 7.512442e+01 1.000000e+01
      vertex   7.675558e+01 7.512442e+01 1.000000e+01
    endloop
  endfacet
  facet normal 0.000000e+00 0.000000e+00 -1.000000e+00
    outer loop
      vertex   7.675558e+01 7.512442e+01 1.000000e+01
      vertex   1.049943e+02 7.512442e+01 1.000000e+01
      vertex   9.746780e+01 5.512442e+01 1.000000e+01
    endloop
  endfacet
  facet normal 0.000000e+00 0.000000e+00 -1.000000e+00
    outer loop
      vertex   7.675558e+01 7.512442e+01 1.000000e+01
      vertex   9.746780e+01 5.512442e+01 1.000000e+01
      vertex   7.675558e+01 5.512442e+01 1.000000e+01
    endloop
  endfacet
  facet normal 0.000000e+00 -0.000000e+00 -1.000000e+00
    outer loop
      vertex   7.675558e+01 5.512442e+01 1.000000e+01
      vertex   9.746780e+01 5.512442e+01 1.000000e+01
      vertex   7.575462e+01 3.105656e+01 1.000000e+01
    endloop
  endfacet
  facet normal -0.000000e+00 0.000000e+00 -1.000000e+00
    outer loop
      vertex   7.675558e+01 5.512442e+01 1.000000e+01
      vertex   7.575462e+01 3.105656e+01 1.000000e+01
      vertex   7.053806e+01 5.512442e+01 1.000000e+01
    endloop
  endfacet
  facet normal 0.000000e+00 -0.000000e+00 -1.000000e+00
    outer loop
      vertex   7.053806e+01 5.512442e+01 1.000000e+01
      vertex   7.575462e+01 3.105656e+01 1.000000e+01
      vertex   6.892112e+01 3.105656e+01 1.000000e+01
    endloop
  endfacet
  facet normal -0.000000e+00 0.000000e+00 -1.000000e+00
    outer loop
      vertex   7.053806e+01 5.512442e+01 1.000000e+01
      vertex   6.892112e+01 3.105656e+01 1.000000e+01
      vertex   6.378157e+01 5.512442e+01 1.000000e+01
    endloop
  endfacet
  facet normal 0.000000e+00 -0.000000e+00 -1.000000e+00
    outer loop
      vertex   6.378157e+01 5.512442e+01 1.000000e+01
      vertex   6.892112e+01 3.105656e+01 1.000000e+01
      vertex   6.085568e+01 3.105656e+01 1.000000e+01
    endloop
  endfacet
  facet normal -0.000000e+00 0.000000e+00 -1.000000e+00
    outer loop
      vertex   6.378157e+01 5.512442e+01 1.000000e+01
      vertex   6.085568e+01 3.105656e+01 1.000000e+01
      vertex   5.760255e+01 5.512442e+01 1.000000e+01
    endloop
  endfacet
  facet normal 0.000000e+00 -0.000000e+00 -1.000000e+00
    outer loop
      vertex   5.760255e+01 5.512442e+01 1.000000e+01
      vertex   6.085568e+01 3.105656e+01 1.000000e+01
      vertex   5.398368e+01 3.105656e+01 1.000000e+01
    endloop
  endfacet
  facet normal -0.000000e+00 0.000000e+00 -1.000000e+00
    outer loop
      vertex   5.760255e+01 5.512442e+01 1.000000e+01
      vertex   5.398368e+01 3.105656e+01 1.000000e+01
      vertex   2.982584e+01 5.512442e+01 1.000000e+01
    endloop
  endfacet
  facet normal -0.000000e+00 -0.000000e+00 -1.000000e+00
    outer loop
      vertex   2.982584e+01 5.512442e+01 1.000000e+01
      vertex   5.398368e+01 3.105656e+01 1.000000e+01
      vertex   2.364682e+01 5.512442e+01 1.000000e+01
    endloop
  endfacet
  facet normal 0.000000e+00 -0.000000e+00 -1.000000e+00
    outer loop
      vertex   2.364682e+01 5.512442e+01 1.000000e+01
      vertex   5.398368e+01 3.105656e+01 1.000000e+01
      vertex   0.000000e+00 0.000000e+00 1.000000e+01
    endloop
  endfacet
  facet normal -0.000000e+00 0.000000e+00 -1.000000e+00
    outer loop
      vertex   2.364682e+01 5.512442e+01 1.000000e+01
      vertex   0.000000e+00 0.000000e+00 1.000000e+01
      vertex   1.733306e+01 7.017736e+01 1.000000e+01
    endloop
  endfacet
  facet normal -0.000000e+00 0.000000e+00 -1.000000e+00
    outer loop
      vertex   1.733306e+01 7.017736e+01 1.000000e+01
      vertex   0.000000e+00 0.000000e+00 1.000000e+01
      vertex   0.000000e+00 1.000000e+02 1.000000e+01
    endloop
  endfacet
  facet normal 0.000000e+00 0.000000e+00 -1.000000e+00
    outer loop
      vertex   1.733306e+01 7.017736e+01 1.000000e+01
      vertex   0.000000e+00 1.000000e+02 1.000000e+01
      vertex   1.733306e+01 7.512442e+01 1.000000e+01
    endloop
  endfacet
  facet normal 0.000000e+00 0.000000e+00 -1.000000e+00
    outer loop
      vertex   1.733306e+01 7.512442e+01 1.000000e+01
      vertex   0.000000e+00 1.000000e+02 1.000000e+01
      vertex   3.613960e+01 7.512442e+01 1.000000e+01
    endloop
  endfacet
  facet normal 0.000000e+00 0.000000e+00 -1.000000e+00
    outer loop
      vertex   3.613960e+01 7.512442e+01 1.000000e+01
      vertex   0.000000e+00 1.000000e+02 1.000000e+01
      vertex   5.760255e+01 7.512442e+01 1.000000e+01
    endloop
  endfacet
  facet normal 0.000000e+00 0.000000e+00 -1.000000e+00
    outer loop
      vertex   3.613960e+01 7.512442e+01 1.000000e+01
      vertex   5.760255e+01 7.512442e+01 1.000000e+01
      vertex   3.613960e+01 7.017736e+01 1.000000e+01
    endloop
  endfacet
  facet normal 0.000000e+00 0.000000e+00 -1.000000e+00
    outer loop
      vertex   3.613960e+01 7.017736e+01 1.000000e+01
      vertex   5.760255e+01 7.512442e+01 1.000000e+01
      vertex   5.760255e+01 5.512442e+01 1.000000e+01
    endloop
  endfacet
  facet normal 0.000000e+00 -0.000000e+00 -1.000000e+00
    outer loop
      vertex   3.613960e+01 7.017736e+01 1.000000e+01
      vertex   5.760255e+01 5.512442e+01 1.000000e+01
      vertex   2.982584e+01 5.512442e+01 1.000000e+01
    endloop
  endfacet
  facet normal 0.000000e+00 0.000000e+00 -1.000000e+00
    outer loop
      vertex   1.117508e+02 7.512442e+01 1.000000e+01
      vertex   1.399125e+02 7.512442e+01 1.000000e+01
      vertex   1.192580e+02 5.512442e+01 1.000000e+01
    endloop
  endfacet
  facet normal 0.000000e+00 0.000000e+00 -1.000000e+00
    outer loop
      vertex   1.192580e+02 5.512442e+01 1.000000e+01
      vertex   1.399125e+02 7.512442e+01 1.000000e+01
      vertex   1.399125e+02 5.512442e+01 1.000000e+01
    endloop
  endfacet
  facet normal 0.000000e+00 0.000000e+00 -1.000000e+00
    outer loop
      vertex   1.192580e+02 5.512442e+01 1.000000e+01
      vertex   1.399125e+02 5.512442e+01 1.000000e+01
      vertex   1.383340e+02 3.105656e+01 1.000000e+01
    endloop
  endfacet
  facet normal 0.000000e+00 0.000000e+00 -1.000000e+00
    outer loop
      vertex   1.383340e+02 3.105656e+01 1.000000e+01
      vertex   1.399125e+02 5.512442e+01 1.000000e+01
      vertex   1.444938e+02 3.105656e+01 1.000000e+01
    endloop
  endfacet
  facet normal 0.000000e+00 0.000000e+00 -1.000000e+00
    outer loop
      vertex   1.444938e+02 3.105656e+01 1.000000e+01
      vertex   1.399125e+02 5.512442e+01 1.000000e+01
      vertex   1.457257e+02 5.512442e+01 1.000000e+01
    endloop
  endfacet
  facet normal 0.000000e+00 0.000000e+00 -1.000000e+00
    outer loop
      vertex   1.444938e+02 3.105656e+01 1.000000e+01
      vertex   1.457257e+02 5.512442e+01 1.000000e+01
      vertex   1.513658e+02 3.105656e+01 1.000000e+01
    endloop
  endfacet
  facet normal 0.000000e+00 0.000000e+00 -1.000000e+00
    outer loop
      vertex   1.513658e+02 3.105656e+01 1.000000e+01
      vertex   1.457257e+02 5.512442e+01 1.000000e+01
      vertex   1.532330e+02 5.512442e+01 1.000000e+01
    endloop
  endfacet
  facet normal 0.000000e+00 0.000000e+00 -1.000000e+00
    outer loop
      vertex   1.513658e+02 3.105656e+01 1.000000e+01
      vertex   1.532330e+02 5.512442e+01 1.000000e+01
      vertex   1.575256e+02 3.105656e+01 1.000000e+01
    endloop
  endfacet
  facet normal 0.000000e+00 0.000000e+00 -1.000000e+00
    outer loop
      vertex   1.575256e+02 3.105656e+01 1.000000e+01
      vertex   1.532330e+02 5.512442e+01 1.000000e+01
      vertex   1.590655e+02 5.512442e+01 1.000000e+01
    endloop
  endfacet
  facet normal 0.000000e+00 0.000000e+00 -1.000000e+00
    outer loop
      vertex   1.457257e+02 5.512442e+01 1.000000e+01
      vertex   1.457257e+02 6.613501e+01 1.000000e+01
      vertex   1.532330e+02 5.512442e+01 1.000000e+01
    endloop
  endfacet
  facet normal 0.000000e+00 0.000000e+00 -1.000000e+00
    outer loop
      vertex   1.880164e+02 6.755945e+01 1.000000e+01
      vertex   1.880164e+02 7.512442e+01 1.000000e+01
      vertex   1.945034e+02 7.512442e+01 1.000000e+01
    endloop
  endfacet
  facet normal 0.000000e+00 0.000000e+00 -1.000000e+00
    outer loop
      vertex   1.945034e+02 7.512442e+01 1.000000e+01
      vertex   1.880164e+02 7.512442e+01 1.000000e+01
      vertex   2.250000e+02 1.000000e+02 1.000000e+01
    endloop
  endfacet
  facet normal 0.000000e+00 0.000000e+00 -1.000000e+00
    outer loop
      vertex   1.945034e+02 7.512442e+01 1.000000e+01
      vertex   2.250000e+02 1.000000e+02 1.000000e+01
      vertex   2.027229e+02 7.512442e+01 1.000000e+01
    endloop
  endfacet
  facet normal 0.000000e+00 0.000000e+00 -1.000000e+00
    outer loop
      vertex   2.027229e+02 7.512442e+01 1.000000e+01
      vertex   2.250000e+02 1.000000e+02 1.000000e+01
      vertex   2.030501e+02 5.512442e+01 1.000000e+01
    endloop
  endfacet
  facet normal 0.000000e+00 -0.000000e+00 -1.000000e+00
    outer loop
      vertex   2.027229e+02 7.512442e+01 1.000000e+01
      vertex   2.030501e+02 5.512442e+01 1.000000e+01
      vertex   1.954274e+02 6.757870e+01 1.000000e+01
    endloop
  endfacet
  facet normal 0.000000e+00 0.000000e+00 -1.000000e+00
    outer loop
      vertex   1.880164e+02 7.512442e+01 1.000000e+01
      vertex   1.818374e+02 7.512442e+01 1.000000e+01
      vertex   2.250000e+02 1.000000e+02 1.000000e+01
    endloop
  endfacet
  facet normal 0.000000e+00 -0.000000e+00 -1.000000e+00
    outer loop
      vertex   1.954274e+02 5.512442e+01 1.000000e+01
      vertex   2.030501e+02 5.512442e+01 1.000000e+01
      vertex   1.575256e+02 3.105656e+01 1.000000e+01
    endloop
  endfacet
  facet normal 0.000000e+00 0.000000e+00 -1.000000e+00
    outer loop
      vertex   1.575256e+02 3.105656e+01 1.000000e+01
      vertex   2.030501e+02 5.512442e+01 1.000000e+01
      vertex   2.250000e+02 0.000000e+00 1.000000e+01
    endloop
  endfacet
  facet normal 0.000000e+00 0.000000e+00 -1.000000e+00
    outer loop
      vertex   1.575256e+02 3.105656e+01 1.000000e+01
      vertex   2.250000e+02 0.000000e+00 1.000000e+01
      vertex   1.575256e+02 1.914125e+01 1.000000e+01
    endloop
  endfacet
  facet normal 0.000000e+00 -0.000000e+00 -1.000000e+00
    outer loop
      vertex   1.575256e+02 1.914125e+01 1.000000e+01
      vertex   2.250000e+02 0.000000e+00 1.000000e+01
      vertex   1.574484e+02 1.784012e+01 1.000000e+01
    endloop
  endfacet
  facet normal 0.000000e+00 -0.000000e+00 -1.000000e+00
    outer loop
      vertex   1.574484e+02 1.784012e+01 1.000000e+01
      vertex   2.250000e+02 0.000000e+00 1.000000e+01
      vertex   1.572170e+02 1.659313e+01 1.000000e+01
    endloop
  endfacet
  facet normal 0.000000e+00 -0.000000e+00 -1.000000e+00
    outer loop
      vertex   1.572170e+02 1.659313e+01 1.000000e+01
      vertex   2.250000e+02 0.000000e+00 1.000000e+01
      vertex   1.568299e+02 1.540359e+01 1.000000e+01
    endloop
  endfacet
  facet normal 0.000000e+00 -0.000000e+00 -1.000000e+00
    outer loop
      vertex   1.568299e+02 1.540359e+01 1.000000e+01
      vertex   2.250000e+02 0.000000e+00 1.000000e+01
      vertex   1.562695e+02 1.431450e+01 1.000000e+01
    endloop
  endfacet
  facet normal 0.000000e+00 -0.000000e+00 -1.000000e+00
    outer loop
      vertex   1.562695e+02 1.431450e+01 1.000000e+01
      vertex   2.250000e+02 0.000000e+00 1.000000e+01
      vertex   1.555305e+02 1.333910e+01 1.000000e+01
    endloop
  endfacet
  facet normal 0.000000e+00 -0.000000e+00 -1.000000e+00
    outer loop
      vertex   1.555305e+02 1.333910e+01 1.000000e+01
      vertex   2.250000e+02 0.000000e+00 1.000000e+01
      vertex   1.546448e+02 1.249544e+01 1.000000e+01
    endloop
  endfacet
  facet normal 0.000000e+00 -0.000000e+00 -1.000000e+00
    outer loop
      vertex   1.546448e+02 1.249544e+01 1.000000e+01
      vertex   2.250000e+02 0.000000e+00 1.000000e+01
      vertex   1.537158e+02 1.184217e+01 1.000000e+01
    endloop
  endfacet
  facet normal 0.000000e+00 -0.000000e+00 -1.000000e+00
    outer loop
      vertex   1.537158e+02 1.184217e+01 1.000000e+01
      vertex   2.250000e+02 0.000000e+00 1.000000e+01
      vertex   1.527517e+02 1.138379e+01 1.000000e+01
    endloop
  endfacet
  facet normal 0.000000e+00 -0.000000e+00 -1.000000e+00
    outer loop
      vertex   1.527517e+02 1.138379e+01 1.000000e+01
      vertex   2.250000e+02 0.000000e+00 1.000000e+01
      vertex   1.518097e+02 1.108904e+01 1.000000e+01
    endloop
  endfacet
  facet normal 0.000000e+00 -0.000000e+00 -1.000000e+00
    outer loop
      vertex   1.518097e+02 1.108904e+01 1.000000e+01
      vertex   2.250000e+02 0.000000e+00 1.000000e+01
      vertex   1.507739e+02 1.087850e+01 1.000000e+01
    endloop
  endfacet
  facet normal 0.000000e+00 -0.000000e+00 -1.000000e+00
    outer loop
      vertex   1.507739e+02 1.087850e+01 1.000000e+01
      vertex   2.250000e+02 0.000000e+00 1.000000e+01
      vertex   1.496442e+02 1.075218e+01 1.000000e+01
    endloop
  endfacet
  facet normal 0.000000e+00 -0.000000e+00 -1.000000e+00
    outer loop
      vertex   1.496442e+02 1.075218e+01 1.000000e+01
      vertex   2.250000e+02 0.000000e+00 1.000000e+01
      vertex   1.484206e+02 1.071007e+01 1.000000e+01
    endloop
  endfacet
  facet normal -0.000000e+00 -0.000000e+00 -1.000000e+00
    outer loop
      vertex   1.484206e+02 1.071007e+01 1.000000e+01
      vertex   2.250000e+02 0.000000e+00 1.000000e+01
      vertex   1.468927e+02 1.076060e+01 1.000000e+01
    endloop
  endfacet
  facet normal 0.000000e+00 0.000000e+00 -1.000000e+00
    outer loop
      vertex   7.053806e+01 6.811768e+01 1.000000e+01
      vertex   6.378157e+01 6.811768e+01 1.000000e+01
      vertex   7.053806e+01 7.512442e+01 1.000000e+01
    endloop
  endfacet
  facet normal -0.000000e+00 0.000000e+00 -1.000000e+00
    outer loop
      vertex   7.053806e+01 7.512442e+01 1.000000e+01
      vertex   6.378157e+01 6.811768e+01 1.000000e+01
      vertex   6.378157e+01 7.512442e+01 1.000000e+01
    endloop
  endfacet
  facet normal 0.000000e+00 0.000000e+00 -1.000000e+00
    outer loop
      vertex   7.053806e+01 7.512442e+01 1.000000e+01
      vertex   6.378157e+01 7.512442e+01 1.000000e+01
      vertex   0.000000e+00 1.000000e+02 1.000000e+01
    endloop
  endfacet
  facet normal 0.000000e+00 0.000000e+00 -1.000000e+00
    outer loop
      vertex   0.000000e+00 1.000000e+02 1.000000e+01
      vertex   6.378157e+01 7.512442e+01 1.000000e+01
      vertex   5.760255e+01 7.512442e+01 1.000000e+01
    endloop
  endfacet
  facet normal 0.000000e+00 0.000000e+00 -1.000000e+00
    outer loop
      vertex   6.378157e+01 6.320912e+01 1.000000e+01
      vertex   7.053806e+01 6.320912e+01 1.000000e+01
      vertex   6.378157e+01 5.512442e+01 1.000000e+01
    endloop
  endfacet
  facet normal 0.000000e+00 0.000000e+00 -1.000000e+00
    outer loop
      vertex   6.378157e+01 5.512442e+01 1.000000e+01
      vertex   7.053806e+01 6.320912e+01 1.000000e+01
      vertex   7.053806e+01 5.512442e+01 1.000000e+01
    endloop
  endfacet
  facet normal 0.000000e+00 0.000000e+00 -1.000000e+00
    outer loop
      vertex   7.675558e+01 7.512442e+01 1.000000e+01
      vertex   7.053806e+01 7.512442e+01 1.000000e+01
      vertex   0.000000e+00 1.000000e+02 1.000000e+01
    endloop
  endfacet
  facet normal 0.000000e+00 0.000000e+00 -1.000000e+00
    outer loop
      vertex   1.444938e+02 3.105656e+01 1.000000e+01
      vertex   1.513658e+02 3.105656e+01 1.000000e+01
      vertex   1.444938e+02 1.885251e+01 1.000000e+01
    endloop
  endfacet
  facet normal 0.000000e+00 0.000000e+00 -1.000000e+00
    outer loop
      vertex   1.444938e+02 1.885251e+01 1.000000e+01
      vertex   1.513658e+02 3.105656e+01 1.000000e+01
      vertex   1.513658e+02 1.885251e+01 1.000000e+01
    endloop
  endfacet
  facet normal 0.000000e+00 0.000000e+00 -1.000000e+00
    outer loop
      vertex   1.444938e+02 1.885251e+01 1.000000e+01
      vertex   1.513658e+02 1.885251e+01 1.000000e+01
      vertex   1.445509e+02 1.807893e+01 1.000000e+01
    endloop
  endfacet
  facet normal 0.000000e+00 0.000000e+00 -1.000000e+00
    outer loop
      vertex   1.445509e+02 1.807893e+01 1.000000e+01
      vertex   1.513658e+02 1.885251e+01 1.000000e+01
      vertex   1.513086e+02 1.806329e+01 1.000000e+01
    endloop
  endfacet
  facet normal 0.000000e+00 0.000000e+00 -1.000000e+00
    outer loop
      vertex   1.445509e+02 1.807893e+01 1.000000e+01
      vertex   1.513086e+02 1.806329e+01 1.000000e+01
      vertex   1.447224e+02 1.739438e+01 1.000000e+01
    endloop
  endfacet
  facet normal 0.000000e+00 0.000000e+00 -1.000000e+00
    outer loop
      vertex   1.447224e+02 1.739438e+01 1.000000e+01
      vertex   1.513086e+02 1.806329e+01 1.000000e+01
      vertex   1.511372e+02 1.737032e+01 1.000000e+01
    endloop
  endfacet
  facet normal 0.000000e+00 0.000000e+00 -1.000000e+00
    outer loop
      vertex   1.447224e+02 1.739438e+01 1.000000e+01
      vertex   1.511372e+02 1.737032e+01 1.000000e+01
      vertex   1.450081e+02 1.679886e+01 1.000000e+01
    endloop
  endfacet
  facet normal 0.000000e+00 0.000000e+00 -1.000000e+00
    outer loop
      vertex   1.450081e+02 1.679886e+01 1.000000e+01
      vertex   1.511372e+02 1.737032e+01 1.000000e+01
      vertex   1.508515e+02 1.677359e+01 1.000000e+01
    endloop
  endfacet
  facet normal 0.000000e+00 0.000000e+00 -1.000000e+00
    outer loop
      vertex   1.450081e+02 1.679886e+01 1.000000e+01
      vertex   1.508515e+02 1.677359e+01 1.000000e+01
      vertex   1.504514e+02 1.627311e+01 1.000000e+01
    endloop
  endfacet
  facet normal 0.000000e+00 0.000000e+00 -1.000000e+00
    outer loop
      vertex   1.450081e+02 1.679886e+01 1.000000e+01
      vertex   1.504514e+02 1.627311e+01 1.000000e+01
      vertex   1.454081e+02 1.629236e+01 1.000000e+01
    endloop
  endfacet
  facet normal 0.000000e+00 0.000000e+00 -1.000000e+00
    outer loop
      vertex   1.454081e+02 1.629236e+01 1.000000e+01
      vertex   1.504514e+02 1.627311e+01 1.000000e+01
      vertex   1.499516e+02 1.587730e+01 1.000000e+01
    endloop
  endfacet
  facet normal 0.000000e+00 0.000000e+00 -1.000000e+00
    outer loop
      vertex   1.454081e+02 1.629236e+01 1.000000e+01
      vertex   1.499516e+02 1.587730e+01 1.000000e+01
      vertex   1.459092e+02 1.588813e+01 1.000000e+01
    endloop
  endfacet
  facet normal 0.000000e+00 0.000000e+00 -1.000000e+00
    outer loop
      vertex   1.459092e+02 1.588813e+01 1.000000e+01
      vertex   1.499516e+02 1.587730e+01 1.000000e+01
      vertex   1.493663e+02 1.559457e+01 1.000000e+01
    endloop
  endfacet
  facet normal 0.000000e+00 0.000000e+00 -1.000000e+00
    outer loop
      vertex   1.459092e+02 1.588813e+01 1.000000e+01
      vertex   1.493663e+02 1.559457e+01 1.000000e+01
      vertex   1.486955e+02 1.542494e+01 1.000000e+01
    endloop
  endfacet
  facet normal -0.000000e+00 0.000000e+00 -1.000000e+00
    outer loop
      vertex   1.486955e+02 1.542494e+01 1.000000e+01
      vertex   1.479394e+02 1.536840e+01 1.000000e+01
      vertex   1.459092e+02 1.588813e+01 1.000000e+01
    endloop
  endfacet
  facet normal 0.000000e+00 0.000000e+00 -1.000000e+00
    outer loop
      vertex   1.459092e+02 1.588813e+01 1.000000e+01
      vertex   1.479394e+02 1.536840e+01 1.000000e+01
      vertex   1.464981e+02 1.559939e+01 1.000000e+01
    endloop
  endfacet
  facet normal 0.000000e+00 0.000000e+00 -1.000000e+00
    outer loop
      vertex   1.464981e+02 1.559939e+01 1.000000e+01
      vertex   1.479394e+02 1.536840e+01 1.000000e+01
      vertex   1.471749e+02 1.542614e+01 1.000000e+01
    endloop
  endfacet
  facet normal 0.000000e+00 -0.000000e+00 -1.000000e+00
    outer loop
      vertex   1.047633e+02 5.843530e+01 1.000000e+01
      vertex   1.117893e+02 5.843530e+01 1.000000e+01
      vertex   1.037816e+02 5.512442e+01 1.000000e+01
    endloop
  endfacet
  facet normal 0.000000e+00 0.000000e+00 -1.000000e+00
    outer loop
      vertex   1.037816e+02 5.512442e+01 1.000000e+01
      vertex   1.117893e+02 5.843530e+01 1.000000e+01
      vertex   1.127902e+02 5.512442e+01 1.000000e+01
    endloop
  endfacet
  facet normal 0.000000e+00 0.000000e+00 -1.000000e+00
    outer loop
      vertex   6.487878e+01 2.431931e+01 1.000000e+01
      vertex   6.085568e+01 3.105656e+01 1.000000e+01
      vertex   6.892112e+01 3.105656e+01 1.000000e+01
    endloop
  endfacet
  facet normal 0.000000e+00 -0.000000e+00 -1.000000e+00
    outer loop
      vertex   5.398368e+01 3.105656e+01 1.000000e+01
      vertex   6.177964e+01 1.942999e+01 1.000000e+01
      vertex   0.000000e+00 0.000000e+00 1.000000e+01
    endloop
  endfacet
  facet normal 0.000000e+00 0.000000e+00 -1.000000e+00
    outer loop
      vertex   0.000000e+00 0.000000e+00 1.000000e+01
      vertex   6.177964e+01 1.942999e+01 1.000000e+01
      vertex   6.177964e+01 1.105656e+01 1.000000e+01
    endloop
  endfacet
  facet normal 0.000000e+00 0.000000e+00 -1.000000e+00
    outer loop
      vertex   0.000000e+00 0.000000e+00 1.000000e+01
      vertex   6.177964e+01 1.105656e+01 1.000000e+01
      vertex   6.797791e+01 1.105656e+01 1.000000e+01
    endloop
  endfacet
  facet normal 0.000000e+00 0.000000e+00 -1.000000e+00
    outer loop
      vertex   1.733306e+01 7.017736e+01 1.000000e+01
      vertex   2.364682e+01 7.017736e+01 1.000000e+01
      vertex   2.364682e+01 5.512442e+01 1.000000e+01
    endloop
  endfacet
  facet normal 0.000000e+00 0.000000e+00 -1.000000e+00
    outer loop
      vertex   2.982584e+01 5.512442e+01 1.000000e+01
      vertex   2.982584e+01 7.017736e+01 1.000000e+01
      vertex   3.613960e+01 7.017736e+01 1.000000e+01
    endloop
  endfacet
  facet normal 0.000000e+00 -0.000000e+00 -1.000000e+00
    outer loop
      vertex   2.250000e+02 1.000000e+02 1.000000e+01
      vertex   2.250000e+02 0.000000e+00 1.000000e+01
      vertex   2.030501e+02 5.512442e+01 1.000000e+01
    endloop
  endfacet
  facet normal 0.000000e+00 0.000000e+00 -1.000000e+00
    outer loop
      vertex   1.104996e+02 6.276638e+01 1.000000e+01
      vertex   1.061107e+02 6.276638e+01 1.000000e+01
      vertex   1.083051e+02 6.994637e+01 1.000000e+01
    endloop
  endfacet
endsolid
