solid
facet normal 0.0 -0.0 40.5500647426
outer loop
vertex -9.27372074127 -0.042912364006 0.0
vertex -7.5 1.25 0.0
vertex -20.0 15.0 0.0
endloop
endfacet
facet normal 0.0 -0.0 17.2232069873
outer loop
vertex -11.2390003204 -1.15587639809 0.0
vertex -20.0 15.0 0.0
vertex -11.9977359772 -1.72261166573 0.0
endloop
endfacet
facet normal 0.0 -0.0 41.5014915146
outer loop
vertex -11.2390003204 -1.15587639809 0.0
vertex -9.27372074127 -0.042912364006 0.0
vertex -20.0 15.0 0.0
endloop
endfacet
facet normal 0.0 -0.0 143.154405355
outer loop
vertex -7.5 1.25 0.0
vertex -3.28600978851 8.0669631958 0.0
vertex -20.0 15.0 0.0
endloop
endfacet
facet normal 0.0 -0.0 33.8925513471
outer loop
vertex -20.0 15.0 0.0
vertex -3.28600978851 8.0669631958 0.0
vertex -1.7601941824 9.4618434906 0.0
endloop
endfacet
facet normal 0.0 -0.0 29.0994079195
outer loop
vertex 0.0185184031725 10.5171518326 0.0
vertex -20.0 15.0 0.0
vertex -1.7601941824 9.4618434906 0.0
endloop
endfacet
facet normal 0.0 -0.0 21.4004666111
outer loop
vertex 0.0185184031725 10.5171518326 0.0
vertex 1.94198513031 11.1554536819 0.0
vertex -20.0 15.0 0.0
endloop
endfacet
facet normal 0.0 -0.0 10.8766918826
outer loop
vertex -20.0 15.0 0.0
vertex 1.94198513031 11.1554536819 0.0
vertex 3.90639829636 11.3069629669 0.0
endloop
endfacet
facet normal 0.0 -0.0 19.1026491056
outer loop
vertex 40.0 15.0 0.0
vertex 3.90639829636 11.3069629669 0.0
vertex 5.85031557083 10.9766082764 0.0
endloop
endfacet
facet normal 0.0 -0.0 33.7143193191
outer loop
vertex 7.73623991013 10.2115497589 0.0
vertex 40.0 15.0 0.0
vertex 5.85031557083 10.9766082764 0.0
endloop
endfacet
facet normal -0.0 -0.0 45.7465157545
outer loop
vertex 7.73623991013 10.2115497589 0.0
vertex 9.52694702148 9.05942726135 0.0
vertex 40.0 15.0 0.0
endloop
endfacet
facet normal 0.0 -0.0 55.3030183654
outer loop
vertex 40.0 15.0 0.0
vertex 9.52694702148 9.05942726135 0.0
vertex 11.1852111816 7.56788063049 0.0
endloop
endfacet
facet normal 0.0 -0.0 15.9846845705
outer loop
vertex 26.2372512817 3.7491607666 0.0
vertex 11.1852111816 7.56788063049 0.0
vertex 23.872636795 3.28710484505 0.0
endloop
endfacet
facet normal 0.0 -0.0 221.904165213
outer loop
vertex 26.2372512817 3.7491607666 0.0
vertex 40.0 15.0 0.0
vertex 11.1852111816 7.56788063049 0.0
endloop
endfacet
facet normal -0.0 -0.0 31.2789363526
outer loop
vertex 26.2372512817 3.7491607666 0.0
vertex 28.8196144104 3.58747911453 0.0
vertex 40.0 15.0 0.0
endloop
endfacet
facet normal 0.0 -0.0 33.9377762431
outer loop
vertex 40.0 15.0 0.0
vertex 28.8196144104 3.58747911453 0.0
vertex 31.0876483917 2.86712908745 0.0
endloop
endfacet
facet normal 0.0 -0.0 14.5231285702
outer loop
vertex 31.900800705 2.34456706047 0.0
vertex 40.0 15.0 0.0
vertex 31.0876483917 2.86712908745 0.0
endloop
endfacet
facet normal -0.0 -0.0 6.05887205885
outer loop
vertex 31.900800705 2.34456706047 0.0
vertex 32.1916389465 2.05093455315 0.0
vertex 40.0 15.0 0.0
endloop
endfacet
facet normal 0.0 -0.0 5.02837532285
outer loop
vertex 40.0 15.0 0.0
vertex 32.1916389465 2.05093455315 0.0
vertex 32.391784668 1.73887479305 0.0
endloop
endfacet
facet normal 0.0 -0.0 3.81337551677
outer loop
vertex 32.4910888672 1.4107439518 0.0
vertex 40.0 15.0 0.0
vertex 32.391784668 1.73887479305 0.0
endloop
endfacet
facet normal -0.0 0.0 2.41710846272
outer loop
vertex 32.4910888672 1.4107439518 0.0
vertex 32.4800453186 1.06885921955 0.0
vertex 40.0 15.0 0.0
endloop
endfacet
facet normal 0.0 0.0 300.798187256
outer loop
vertex 40.0 15.0 0.0
vertex 32.4800453186 1.06885921955 0.0
vertex 40.0 -25.0 0.0
endloop
endfacet
facet normal 0.0 -0.0 5.73012821961
outer loop
vertex 40.0 -25.0 0.0
vertex 32.4800453186 1.06885921955 0.0
vertex 32.3623847961 0.714754343033 0.0
endloop
endfacet
facet normal 0.0 -0.0 3.94395487021
outer loop
vertex 31.2652645111 -11.3711452484 0.0
vertex 32.3623847961 0.714754343033 0.0
vertex 31.03282547 -10.3368740082 0.0
endloop
endfacet
facet normal -0.0 -0.0 120.519629086
outer loop
vertex 31.2652645111 -11.3711452484 0.0
vertex 40.0 -25.0 0.0
vertex 32.3623847961 0.714754343033 0.0
endloop
endfacet
facet normal 0.0 0.0 9.24593030906
outer loop
vertex 31.2652645111 -11.3711452484 0.0
vertex 31.2652606964 -12.4296636581 0.0
vertex 40.0 -25.0 0.0
endloop
endfacet
facet normal 0.0 -0.0 26.1606221027
outer loop
vertex 40.0 -25.0 0.0
vertex 31.2652606964 -12.4296636581 0.0
vertex 30.6379566193 -14.5219068527 0.0
endloop
endfacet
facet normal -0.0 -0.0 31.0828223014
outer loop
vertex 29.3510112762 -16.4016342163 0.0
vertex 40.0 -25.0 0.0
vertex 30.6379566193 -14.5219068527 0.0
endloop
endfacet
facet normal 0.0 0.0 30.3746887422
outer loop
vertex 29.3510112762 -16.4016342163 0.0
vertex 27.61652565 -17.8535041809 0.0
vertex 40.0 -25.0 0.0
endloop
endfacet
facet normal 0.0 -0.0 24.0921577606
outer loop
vertex 40.0 -25.0 0.0
vertex 27.61652565 -17.8535041809 0.0
vertex 25.6466007233 -18.6621704102 0.0
endloop
endfacet
facet normal -0.0 -0.0 7.76661138785
outer loop
vertex 24.6394290924 -18.7585468292 0.0
vertex 40.0 -25.0 0.0
vertex 25.6466007233 -18.6621704102 0.0
endloop
endfacet
facet normal 0.0 0.0 4.42673997457
outer loop
vertex 24.6394290924 -18.7585468292 0.0
vertex 23.6424751282 -18.6416435242 0.0
vertex 40.0 -25.0 0.0
endloop
endfacet
facet normal 0.0 -0.0 107.664228805
outer loop
vertex 40.0 -25.0 0.0
vertex 23.6424751282 -18.6416435242 0.0
vertex 7.17895460129 -18.8240242004 0.0
endloop
endfacet
facet normal 0.0 -0.0 11.0936287669
outer loop
vertex -20.0 -25.0 0.0
vertex 7.17895460129 -18.8240242004 0.0
vertex 4.99239730835 -18.9127140045 0.0
endloop
endfacet
facet normal 0.0 0.0 27.0240789445
outer loop
vertex 2.82378554344 -18.359621048 0.0
vertex -20.0 -25.0 0.0
vertex 4.99239730835 -18.9127140045 0.0
endloop
endfacet
facet normal 0.0 -0.0 38.5916635472
outer loop
vertex 2.82378554344 -18.359621048 0.0
vertex 0.901196658611 -17.2281284332 0.0
vertex -20.0 -25.0 0.0
endloop
endfacet
facet normal 0.0 -0.0 45.6714486839
outer loop
vertex -20.0 -25.0 0.0
vertex 0.901196658611 -17.2281284332 0.0
vertex -0.547293126583 -15.58162117 0.0
endloop
endfacet
facet normal 0.0 0.0 23.8615480463
outer loop
vertex -1.02247679234 -14.5850458145 0.0
vertex -20.0 -25.0 0.0
vertex -0.547293126583 -15.58162117 0.0
endloop
endfacet
facet normal 0.0 -0.0 23.7289873312
outer loop
vertex -1.02247679234 -14.5850458145 0.0
vertex -1.2938117981 -13.4835824966 0.0
vertex -20.0 -25.0 0.0
endloop
endfacet
facet normal 0.0 -0.0 216.308058796
outer loop
vertex -20.0 -25.0 0.0
vertex -1.2938117981 -13.4835824966 0.0
vertex -8.12979316711 -6.12868785858 0.0
endloop
endfacet
facet normal 0.0 0.0 56.1282734943
outer loop
vertex -10.4981622696 -5.16543245316 0.0
vertex -20.0 -25.0 0.0
vertex -8.12979316711 -6.12868785858 0.0
endloop
endfacet
facet normal 0.0 -0.0 25.1176202783
outer loop
vertex -10.4981622696 -5.16543245316 0.0
vertex -11.4420967102 -4.492395401 0.0
vertex -20.0 -25.0 0.0
endloop
endfacet
facet normal 0.0 -0.0 20.3572736847
outer loop
vertex -20.0 -25.0 0.0
vertex -11.4420967102 -4.492395401 0.0
vertex -12.1298751831 -3.76177430153 0.0
endloop
endfacet
facet normal 0.0 0.0 13.427912194
outer loop
vertex -12.4895076752 -3.02608633041 0.0
vertex -20.0 -25.0 0.0
vertex -12.1298751831 -3.76177430153 0.0
endloop
endfacet
facet normal 0.0 -0.0 3.4066085933
outer loop
vertex -12.4895076752 -3.02608633041 0.0
vertex -12.523771286 -2.67275357246 0.0
vertex -20.0 -25.0 0.0
endloop
endfacet
facet normal 0.0 -0.0 299.04914856
outer loop
vertex -20.0 -25.0 0.0
vertex -12.523771286 -2.67275357246 0.0
vertex -20.0 15.0 0.0
endloop
endfacet
facet normal 0.0 -0.0 3.81841350743
outer loop
vertex -20.0 15.0 0.0
vertex -12.523771286 -2.67275357246 0.0
vertex -12.4494743347 -2.33764052391 0.0
endloop
endfacet
facet normal 0.0 -0.0 5.5046828399
outer loop
vertex -12.2693729401 -2.02214598656 0.0
vertex -20.0 15.0 0.0
vertex -12.4494743347 -2.33764052391 0.0
endloop
endfacet
facet normal 0.0 -0.0 6.93943216367
outer loop
vertex -12.2693729401 -2.02214598656 0.0
vertex -11.9977359772 -1.72261166573 0.0
vertex -20.0 15.0 0.0
endloop
endfacet
facet normal 0.0 -0.0 32.370735528
outer loop
vertex 11.1852111816 7.56788063049 0.0
vertex 14.0871238708 4.03736352921 0.0
vertex 23.872636795 3.28710484505 0.0
endloop
endfacet
facet normal 0.0 -0.0 18.8077203885
outer loop
vertex 23.872636795 3.28710484505 0.0
vertex 14.0871238708 4.03736352921 0.0
vertex 19.95952034 1.66512846947 0.0
endloop
endfacet
facet normal 0.0 -0.0 5.80833418973
outer loop
vertex 19.95952034 1.66512846947 0.0
vertex 14.0871238708 4.03736352921 0.0
vertex 15.4466714859 2.49906468391 0.0
endloop
endfacet
facet normal 0.0 -0.0 1.16572458325
outer loop
vertex 18.32147789 1.21658670902 0.0
vertex 15.4466714859 2.49906468391 0.0
vertex 16.8357181549 1.47390127182 0.0
endloop
endfacet
facet normal -0.0 -0.0 0.162677034255
outer loop
vertex 17.5624980927 1.23854148388 0.0
vertex 18.32147789 1.21658670902 0.0
vertex 16.8357181549 1.47390127182 0.0
endloop
endfacet
facet normal 0.0 -0.0 3.39022408944
outer loop
vertex 18.32147789 1.21658670902 0.0
vertex 19.95952034 1.66512846947 0.0
vertex 15.4466714859 2.49906468391 0.0
endloop
endfacet
facet normal 0.0 -0.0 1.8145658041
outer loop
vertex 32.3623847961 0.714754343033 0.0
vertex 32.1542205811 0.349228918552 0.0
vertex 31.03282547 -10.3368740082 0.0
endloop
endfacet
facet normal 0.0 -0.0 12.0978539909
outer loop
vertex 31.03282547 -10.3368740082 0.0
vertex 32.1542205811 0.349228918552 0.0
vertex 30.1090278625 -8.35179519653 0.0
endloop
endfacet
facet normal 0.0 -0.0 9.04047988745
outer loop
vertex 30.1090278625 -8.35179519653 0.0
vertex 32.1542205811 0.349228918552 0.0
vertex 30.7483196259 -1.21165001392 0.0
endloop
endfacet
facet normal 0.0 -0.0 5.22808201557
outer loop
vertex 29.0907783508 -6.46207761765 0.0
vertex 30.7483196259 -1.21165001392 0.0
vertex 29.2216072083 -2.89354538918 0.0
endloop
endfacet
facet normal 0.0 -0.0 0.807117569054
outer loop
vertex 28.7403011322 -5.5469994545 0.0
vertex 29.2216072083 -2.89354538918 0.0
vertex 28.5990867615 -4.64858627319 0.0
endloop
endfacet
facet normal -0.0 -0.0 1.37040788055
outer loop
vertex 28.7403011322 -5.5469994545 0.0
vertex 29.0907783508 -6.46207761765 0.0
vertex 29.2216072083 -2.89354538918 0.0
endloop
endfacet
facet normal 0.0 -0.0 0.294721804316
outer loop
vertex 29.2216072083 -2.89354538918 0.0
vertex 28.7447662354 -3.76444625854 0.0
vertex 28.5990867615 -4.64858627319 0.0
endloop
endfacet
facet normal -0.0 -0.0 8.47853022895
outer loop
vertex 29.0907783508 -6.46207761765 0.0
vertex 30.1090278625 -8.35179519653 0.0
vertex 30.7483196259 -1.21165001392 0.0
endloop
endfacet
facet normal 0.0 -0.0 11.9465368093
outer loop
vertex 7.17895460129 -18.8240242004 0.0
vertex 23.6424751282 -18.6416435242 0.0
vertex 9.18607139587 -18.0761528015 0.0
endloop
endfacet
facet normal -0.0 -0.0 9.15395815488
outer loop
vertex 9.18607139587 -18.0761528015 0.0
vertex 23.6424751282 -18.6416435242 0.0
vertex 21.6848087311 -17.931854248 0.0
endloop
endfacet
facet normal -0.0 -0.0 18.8302298035
outer loop
vertex 11.0116500854 -16.9443244934 0.0
vertex 21.6848087311 -17.931854248 0.0
vertex 17.9295883179 -15.8201436996 0.0
endloop
endfacet
facet normal -0.0 -0.0 3.68588727563
outer loop
vertex 12.7301473618 -15.8184757233 0.0
vertex 17.9295883179 -15.8201436996 0.0
vertex 16.1406974792 -15.110669136 0.0
endloop
endfacet
facet normal -0.0 -0.0 0.182167971448
outer loop
vertex 14.4161968231 -15.0888061523 0.0
vertex 16.1406974792 -15.110669136 0.0
vertex 15.2703256607 -14.9939994812 0.0
endloop
endfacet
facet normal 0.0 0.0 1.29517772571
outer loop
vertex 14.4161968231 -15.0888061523 0.0
vertex 12.7301473618 -15.8184757233 0.0
vertex 16.1406974792 -15.110669136 0.0
endloop
endfacet
facet normal 0.0 0.0 5.85665061873
outer loop
vertex 12.7301473618 -15.8184757233 0.0
vertex 11.0116500854 -16.9443244934 0.0
vertex 17.9295883179 -15.8201436996 0.0
endloop
endfacet
facet normal 0.0 0.0 13.8829963674
outer loop
vertex 11.0116500854 -16.9443244934 0.0
vertex 9.18607139587 -18.0761528015 0.0
vertex 21.6848087311 -17.931854248 0.0
endloop
endfacet
facet normal 0.0 -0.0 16.4624902542
outer loop
vertex -1.2938117981 -13.4835824966 0.0
vertex -1.28829669952 -11.0813045502 0.0
vertex -8.12979316711 -6.12868785858 0.0
endloop
endfacet
facet normal 0.0 -0.0 11.3532342304
outer loop
vertex -8.12979316711 -6.12868785858 0.0
vertex -1.28829669952 -11.0813045502 0.0
vertex -5.58572053909 -6.31089687347 0.0
endloop
endfacet
facet normal 0.0 -0.0 11.4327063052
outer loop
vertex -5.58572053909 -6.31089687347 0.0
vertex -1.28829669952 -11.0813045502 0.0
vertex -0.983621239662 -8.75915050507 0.0
endloop
endfacet
facet normal -0.0 -0.0 2.70188354401
outer loop
vertex -3.29818749428 -6.05445718765 0.0
vertex -0.983621239662 -8.75915050507 0.0
vertex -2.36524152756 -5.97731494904 0.0
endloop
endfacet
facet normal 0.0 0.0 6.78062198282
outer loop
vertex -3.29818749428 -6.05445718765 0.0
vertex -5.58572053909 -6.31089687347 0.0
vertex -0.983621239662 -8.75915050507 0.0
endloop
endfacet
facet normal 0.0 -0.0 2.68341179533
outer loop
vertex -0.983621239662 -8.75915050507 0.0
vertex -0.920957744122 -6.94309997559 0.0
vertex -2.36524152756 -5.97731494904 0.0
endloop
endfacet
facet normal 0.0 -0.0 0.601735937257
outer loop
vertex -2.36524152756 -5.97731494904 0.0
vertex -0.920957744122 -6.94309997559 0.0
vertex -1.63386785984 -6.04974794388 0.0
endloop
endfacet
facet normal 0.0 -0.0 0.15526423906
outer loop
vertex -1.63386785984 -6.04974794388 0.0
vertex -0.920957744122 -6.94309997559 0.0
vertex -1.00652492046 -6.61808586121 0.0
endloop
endfacet
facet normal 0.0 -0.0 0.02725085088
outer loop
vertex -1.35807335377 -6.16913175583 0.0
vertex -1.00652492046 -6.61808586121 0.0
vertex -1.14949691296 -6.35798311234 0.0
endloop
endfacet
facet normal 0.0 0.0 0.0818498836888
outer loop
vertex -1.35807335377 -6.16913175583 0.0
vertex -1.63386785984 -6.04974794388 0.0
vertex -1.00652492046 -6.61808586121 0.0
endloop
endfacet
facet normal 0.0 -0.0 221.582221985
outer loop
vertex 40.0 15.0 0.0
vertex -20.0 15.0 0.0
vertex 3.90639829636 11.3069629669 0.0
endloop
endfacet
facet normal 0.0 -0.0 370.558547974
outer loop
vertex -20.0 -25.0 0.0
vertex 40.0 -25.0 0.0
vertex 7.17895460129 -18.8240242004 0.0
endloop
endfacet
endsolid
