solid
facet normal -0.0 0.0 27.3206251544
outer loop
vertex 6.25 -18.8388347626 0.0
vertex 5.12589454651 -27.139541626 0.0
vertex 9.63247585297 -18.1660194397 0.0
endloop
endfacet
facet normal 0.0 -0.0 28.8332539226
outer loop
vertex 6.25 -18.8388347626 0.0
vertex 2.86752438545 -18.1660194397 0.0
vertex 5.12589454651 -27.139541626 0.0
endloop
endfacet
facet normal 0.0 -0.0 54.8867695904
outer loop
vertex 5.12589454651 -27.139541626 0.0
vertex 2.86752438545 -18.1660194397 0.0
vertex -1.61445486546 -24.6608047485 0.0
endloop
endfacet
facet normal 0.0 -0.0 27.2115146244
outer loop
vertex -1.61445486546 -24.6608047485 0.0
vertex 2.86752438545 -18.1660194397 0.0
vertex 0.0 -16.25 0.0
endloop
endfacet
facet normal 0.0 -0.0 48.7436299246
outer loop
vertex -14.6964292526 -19.6953029633 0.0
vertex 0.0 -16.25 0.0
vertex -1.91601848602 -13.382475853 0.0
endloop
endfacet
facet normal 0.0 0.0 47.4768036399
outer loop
vertex -2.58883476257 -10.0 0.0
vertex -14.6964292526 -19.6953029633 0.0
vertex -1.91601848602 -13.382475853 0.0
endloop
endfacet
facet normal 0.0 -0.0 92.4073993307
outer loop
vertex -2.58883476257 -10.0 0.0
vertex -21.6017341614 -17.5926246643 0.0
vertex -14.6964292526 -19.6953029633 0.0
endloop
endfacet
facet normal 0.0 -0.0 59.2022316554
outer loop
vertex -2.58883476257 -10.0 0.0
vertex -1.91601848602 -6.61752414703 0.0
vertex -21.6017341614 -17.5926246643 0.0
endloop
endfacet
facet normal 0.0 -0.0 483.105147824
outer loop
vertex -21.6017341614 -17.5926246643 0.0
vertex -1.91601848602 -6.61752414703 0.0
vertex -11.0749797821 12.8171072006 0.0
endloop
endfacet
facet normal 0.0 -0.0 116.98259794
outer loop
vertex -28.2620105743 -14.988984108 0.0
vertex -11.0749797821 12.8171072006 0.0
vertex -14.1691198349 14.6176891327 0.0
endloop
endfacet
facet normal 0.0 -0.0 315.552272647
outer loop
vertex -31.296705246 -13.2181444168 0.0
vertex -14.1691198349 14.6176891327 0.0
vertex -24.4647483826 16.3088130951 0.0
endloop
endfacet
facet normal -0.0 0.0 97.8726883069
outer loop
vertex -27.995967865 15.3729934692 0.0
vertex -31.296705246 -13.2181444168 0.0
vertex -24.4647483826 16.3088130951 0.0
endloop
endfacet
facet normal 0.0 -0.0 87.6085013323
outer loop
vertex -27.995967865 15.3729934692 0.0
vertex -31.2473220825 13.7517147064 0.0
vertex -31.296705246 -13.2181444168 0.0
endloop
endfacet
facet normal 0.0 -0.0 73.7147965672
outer loop
vertex -31.296705246 -13.2181444168 0.0
vertex -31.2473220825 13.7517147064 0.0
vertex -34.025844574 -10.9847240448 0.0
endloop
endfacet
facet normal 0.0 -0.0 62.6105847775
outer loop
vertex -34.025844574 -10.9847240448 0.0
vertex -31.2473220825 13.7517147064 0.0
vertex -34.0304756165 11.5078163147 0.0
endloop
endfacet
facet normal -0.0 -0.0 49.9355133403
outer loop
vertex -36.25 8.75 0.0
vertex -34.025844574 -10.9847240448 0.0
vertex -34.0304756165 11.5078163147 0.0
endloop
endfacet
facet normal 0.0 0.0 38.9782983276
outer loop
vertex -36.25 8.75 0.0
vertex -37.8636703491 5.54295825958 0.0
vertex -34.025844574 -10.9847240448 0.0
endloop
endfacet
facet normal 0.0 -0.0 27.6256265117
outer loop
vertex -34.025844574 -10.9847240448 0.0
vertex -37.8636703491 5.54295825958 0.0
vertex -36.3368988037 -8.23036670685 0.0
endloop
endfacet
facet normal 0.0 -0.0 18.0712292639
outer loop
vertex -36.3368988037 -8.23036670685 0.0
vertex -37.8636703491 5.54295825958 0.0
vertex -38.7855110168 2.02283883095 0.0
endloop
endfacet
facet normal 0.0 -0.0 3.38805501847
outer loop
vertex -38.0269470215 -5.05392980576 0.0
vertex -38.7855110168 2.02283883095 0.0
vertex -38.8777580261 -1.58297991753 0.0
endloop
endfacet
facet normal -0.0 -0.0 9.55054955535
outer loop
vertex -38.0269470215 -5.05392980576 0.0
vertex -36.3368988037 -8.23036670685 0.0
vertex -38.7855110168 2.02283883095 0.0
endloop
endfacet
facet normal 0.0 -0.0 80.6797239219
outer loop
vertex -11.0749797821 12.8171072006 0.0
vertex -1.91601848602 -6.61752414703 0.0
vertex -4.9649720192 8.66095638275 0.0
endloop
endfacet
facet normal 0.0 -0.0 38.016799013
outer loop
vertex -4.9649720192 8.66095638275 0.0
vertex -1.91601848602 -6.61752414703 0.0
vertex 0.0 -3.75 0.0
endloop
endfacet
facet normal 0.0 -0.0 31.5356939157
outer loop
vertex -1.83950018883 6.81582355499 0.0
vertex 0.0 -3.75 0.0
vertex 1.37679338455 5.48551845551 0.0
endloop
endfacet
facet normal 0.0 0.0 29.6290617007
outer loop
vertex -1.83950018883 6.81582355499 0.0
vertex -4.9649720192 8.66095638275 0.0
vertex 0.0 -3.75 0.0
endloop
endfacet
facet normal 0.0 -0.0 23.8451128072
outer loop
vertex 0.0 -3.75 0.0
vertex 2.86752438545 -1.83398151398 0.0
vertex 1.37679338455 5.48551845551 0.0
endloop
endfacet
facet normal 0.0 -0.0 23.6197017556
outer loop
vertex 1.37679338455 5.48551845551 0.0
vertex 2.86752438545 -1.83398151398 0.0
vertex 4.71512889862 4.93864250183 0.0
endloop
endfacet
facet normal 0.0 0.0 21.6651371909
outer loop
vertex 4.71512889862 4.93864250183 0.0
vertex 2.86752438545 -1.83398151398 0.0
vertex 6.25 -1.16116523743 0.0
endloop
endfacet
facet normal 0.0 0.0 23.0960952196
outer loop
vertex 8.15899181366 5.28727531433 0.0
vertex 6.25 -1.16116523743 0.0
vertex 9.63247585297 -1.83398151398 0.0
endloop
endfacet
facet normal 0.0 0.0 27.301274061
outer loop
vertex 11.6075906754 6.3671412468 0.0
vertex 9.63247585297 -1.83398151398 0.0
vertex 12.5 -3.75 0.0
endloop
endfacet
facet normal 0.0 -0.0 29.5157444302
outer loop
vertex 14.9515285492 7.98575687408 0.0
vertex 12.5 -3.75 0.0
vertex 14.416018486 -6.61752414703 0.0
endloop
endfacet
facet normal -0.0 0.0 234.624047992
outer loop
vertex 21.0852775574 11.9791402817 0.0
vertex 14.416018486 -6.61752414703 0.0
vertex 34.7403869629 14.8753299713 0.0
endloop
endfacet
facet normal 0.0 -0.0 9.07790282901
outer loop
vertex 24.1114883423 13.7610683441 0.0
vertex 34.7403869629 14.8753299713 0.0
vertex 30.9363307953 15.3306159973 0.0
endloop
endfacet
facet normal -0.0 0.0 3.13641804332
outer loop
vertex 27.3526630402 14.9660186768 0.0
vertex 24.1114883423 13.7610683441 0.0
vertex 30.9363307953 15.3306159973 0.0
endloop
endfacet
facet normal 0.0 -0.0 104.779800937
outer loop
vertex 42.2514839172 -22.6617393494 0.0
vertex 44.2557106018 -19.7385044098 0.0
vertex 15.0888347626 -10.0 0.0
endloop
endfacet
facet normal 0.0 -0.0 90.4054983608
outer loop
vertex 39.9787521362 -25.1928749084 0.0
vertex 15.0888347626 -10.0 0.0
vertex 37.3570251465 -27.224779129 0.0
endloop
endfacet
facet normal 0.0 -0.0 97.5290845764
outer loop
vertex 39.9787521362 -25.1928749084 0.0
vertex 42.2514839172 -22.6617393494 0.0
vertex 15.0888347626 -10.0 0.0
endloop
endfacet
facet normal 0.0 0.0 86.9107280208
outer loop
vertex 15.0888347626 -10.0 0.0
vertex 14.416018486 -13.382475853 0.0
vertex 37.3570251465 -27.224779129 0.0
endloop
endfacet
facet normal 0.0 -0.0 75.7049095138
outer loop
vertex 37.3570251465 -27.224779129 0.0
vertex 14.416018486 -13.382475853 0.0
vertex 34.3774032593 -28.726896286 0.0
endloop
endfacet
facet normal 0.0 -0.0 70.5638688134
outer loop
vertex 34.3774032593 -28.726896286 0.0
vertex 14.416018486 -13.382475853 0.0
vertex 31.1001605988 -29.7426815033 0.0
endloop
endfacet
facet normal 0.0 -0.0 67.0620181914
outer loop
vertex 31.1001605988 -29.7426815033 0.0
vertex 14.416018486 -13.382475853 0.0
vertex 27.5883960724 -30.3186073303 0.0
endloop
endfacet
facet normal 0.0 -0.0 126.83141043
outer loop
vertex 27.5883960724 -30.3186073303 0.0
vertex 14.416018486 -13.382475853 0.0
vertex 20.1137123108 -30.3367652893 0.0
endloop
endfacet
facet normal 0.0 -0.0 48.8230066023
outer loop
vertex 20.1137123108 -30.3367652893 0.0
vertex 14.416018486 -13.382475853 0.0
vertex 12.5 -16.25 0.0
endloop
endfacet
facet normal 0.0 -0.0 36.919924794
outer loop
vertex 12.4581489563 -29.1531562805 0.0
vertex 12.5 -16.25 0.0
vertex 9.63247585297 -18.1660194397 0.0
endloop
endfacet
facet normal -0.0 -0.0 74.8706657823
outer loop
vertex 5.12589454651 -27.139541626 0.0
vertex 12.4581489563 -29.1531562805 0.0
vertex 9.63247585297 -18.1660194397 0.0
endloop
endfacet
facet normal -0.0 -0.0 114.803463813
outer loop
vertex -31.296705246 -13.2181444168 0.0
vertex -28.2620105743 -14.988984108 0.0
vertex -14.1691198349 14.6176891327 0.0
endloop
endfacet
facet normal -0.0 -0.0 229.945104493
outer loop
vertex -28.2620105743 -14.988984108 0.0
vertex -21.6017341614 -17.5926246643 0.0
vertex -11.0749797821 12.8171072006 0.0
endloop
endfacet
facet normal -0.0 -0.0 118.046510812
outer loop
vertex -14.6964292526 -19.6953029633 0.0
vertex -1.61445486546 -24.6608047485 0.0
vertex 0.0 -16.25 0.0
endloop
endfacet
facet normal -0.0 -0.0 98.8304656508
outer loop
vertex 12.4581489563 -29.1531562805 0.0
vertex 20.1137123108 -30.3367652893 0.0
vertex 12.5 -16.25 0.0
endloop
endfacet
facet normal 0.0 -0.0 226.374704141
outer loop
vertex 44.2557106018 -19.7385044098 0.0
vertex 47.7935791016 -13.1583976746 0.0
vertex 15.0888347626 -10.0 0.0
endloop
endfacet
facet normal -0.0 -0.0 108.497986641
outer loop
vertex 15.0888347626 -10.0 0.0
vertex 47.7935791016 -13.1583976746 0.0
vertex 14.416018486 -6.61752414703 0.0
endloop
endfacet
facet normal -0.0 -0.0 836.194454735
outer loop
vertex 14.416018486 -6.61752414703 0.0
vertex 47.7935791016 -13.1583976746 0.0
vertex 38.5717201233 13.7013683319 0.0
endloop
endfacet
facet normal 0.0 0.0 106.206313632
outer loop
vertex 34.7403869629 14.8753299713 0.0
vertex 14.416018486 -6.61752414703 0.0
vertex 38.5717201233 13.7013683319 0.0
endloop
endfacet
facet normal 0.0 -0.0 81.9340181601
outer loop
vertex 38.5717201233 13.7013683319 0.0
vertex 47.7935791016 -13.1583976746 0.0
vertex 42.2372131348 11.9099435806 0.0
endloop
endfacet
facet normal 0.0 -0.0 111.473045701
outer loop
vertex 42.2372131348 11.9099435806 0.0
vertex 47.7935791016 -13.1583976746 0.0
vertex 50.7049560547 -6.23127031326 0.0
endloop
endfacet
facet normal 0.0 -0.0 29.560625331
outer loop
vertex 45.5437583923 9.60226821899 0.0
vertex 50.7049560547 -6.23127031326 0.0
vertex 48.2982330322 6.87955617905 0.0
endloop
endfacet
facet normal 0.0 0.0 40.4439430624
outer loop
vertex 45.5437583923 9.60226821899 0.0
vertex 42.2372131348 11.9099435806 0.0
vertex 50.7049560547 -6.23127031326 0.0
endloop
endfacet
facet normal 0.0 -0.0 17.979406485
outer loop
vertex 50.7049560547 -6.23127031326 0.0
vertex 51.4430999756 -2.78187894821 0.0
vertex 48.2982330322 6.87955617905 0.0
endloop
endfacet
facet normal 0.0 -0.0 9.8631455114
outer loop
vertex 48.2982330322 6.87955617905 0.0
vertex 51.4430999756 -2.78187894821 0.0
vertex 50.3075256348 3.84301924706 0.0
endloop
endfacet
facet normal 0.0 -0.0 3.40924684895
outer loop
vertex 50.3075256348 3.84301924706 0.0
vertex 51.4430999756 -2.78187894821 0.0
vertex 51.3790855408 0.593801379204 0.0
endloop
endfacet
facet normal -0.0 0.0 15.5679421714
outer loop
vertex 24.1114883423 13.7610683441 0.0
vertex 21.0852775574 11.9791402817 0.0
vertex 34.7403869629 14.8753299713 0.0
endloop
endfacet
facet normal 0.0 -0.0 87.4343634786
outer loop
vertex 21.0852775574 11.9791402817 0.0
vertex 14.9515285492 7.98575687408 0.0
vertex 14.416018486 -6.61752414703 0.0
endloop
endfacet
facet normal 0.0 -0.0 35.275559469
outer loop
vertex 14.9515285492 7.98575687408 0.0
vertex 11.6075906754 6.3671412468 0.0
vertex 12.5 -3.75 0.0
endloop
endfacet
facet normal 0.0 -0.0 26.149523408
outer loop
vertex 11.6075906754 6.3671412468 0.0
vertex 8.15899181366 5.28727531433 0.0
vertex 9.63247585297 -1.83398151398 0.0
endloop
endfacet
facet normal 0.0 -0.0 21.542008091
outer loop
vertex 8.15899181366 5.28727531433 0.0
vertex 4.71512889862 4.93864250183 0.0
vertex 6.25 -1.16116523743 0.0
endloop
endfacet
facet normal 0.0 -0.0 7.9492771457
outer loop
vertex -14.1691198349 14.6176891327 0.0
vertex -17.4055805206 15.9214010239 0.0
vertex -24.4647483826 16.3088130951 0.0
endloop
endfacet
facet normal -0.0 -0.0 2.79898008667
outer loop
vertex -24.4647483826 16.3088130951 0.0
vertex -17.4055805206 15.9214010239 0.0
vertex -20.8651714325 16.507768631 0.0
endloop
endfacet
endsolid
